<svg width="584" height="89" viewBox="0 0 584 89" fill="none" xmlns="http://www.w3.org/2000/svg">
<g clip-path="url(#clip0_301_224)">
<path d="M64.8647 55.8578C63.1646 53.1597 60.6282 51.0795 57.635 49.9283C60.2807 48.3487 62.4484 46.0928 63.9104 43.3972C65.2842 40.3172 65.9225 36.9648 65.7756 33.6007C65.7756 26.7545 63.8477 21.7989 59.9919 18.7339C56.1457 15.6546 50.3475 14.1221 42.6406 14.1221H14.2568V73.5747H28.5138V56.975H42.308C48.6991 56.975 51.8994 59.9254 51.9091 65.8263C51.9425 66.8901 51.7515 67.9491 51.3482 68.9356C50.9448 69.9221 50.338 70.8144 49.5666 71.5553C47.4526 73.0056 44.9021 73.6979 42.337 73.5175H28.5138V87.6394H43.0599C50.7234 87.6394 56.6373 85.9064 60.845 82.4547C65.0526 79.003 67.2071 73.675 67.2071 66.5567C67.3788 62.8493 66.5714 59.1617 64.8647 55.8578ZM41.9321 44.3998H28.5138V26.9121H41.9321C47.7158 26.9121 50.6077 29.7766 50.6077 35.6488C50.6077 41.521 47.7158 44.3998 41.9321 44.3998Z" fill="#1E1E1E"/>
<path d="M77.936 11.959V87.6964H92.54V11.959H77.936Z" fill="#1E1E1E"/>
<path d="M149.467 76.6107C148.921 75.4776 148.625 74.2423 148.599 72.9871V50.4721C148.599 44.1416 147.052 39.5011 143.943 36.6366C140.835 33.7721 135.803 32.3398 128.775 32.3398C121.255 32.422 113.779 33.4814 106.537 35.4908L106.971 45.5165L127.503 44.6572C129.238 44.506 130.974 44.9346 132.434 45.8746C133.46 46.7053 133.88 48.2378 133.88 50.4721V53.8236L122.196 54.6829C115.733 55.1269 110.918 56.5449 107.737 58.9797C104.556 61.4145 103.052 65.4678 103.052 71.2541C103.052 83.1036 108.691 89.0188 119.97 88.9997C125.542 88.9764 131.034 87.6826 136.02 85.2185C138.068 86.6249 140.355 87.6535 142.772 88.2549C145.707 88.8069 148.692 89.0565 151.679 88.9997L152.113 78.0573C151.078 77.9244 150.132 77.4074 149.467 76.6107ZM133.937 75.4649L132.304 75.9089C129.358 76.737 126.314 77.1753 123.252 77.2122C119.685 77.2122 117.897 75.231 117.888 71.2684C117.888 67.2867 119.955 65.1241 124.004 64.7803L133.937 63.9066V75.4649Z" fill="#1E1E1E"/>
<path d="M187.364 76.0098C182.275 76.0098 178.901 74.9117 177.243 72.7156C175.58 70.5099 174.785 66.4567 174.785 60.5558C174.785 54.6549 175.58 50.5301 177.243 48.4676C178.906 46.4052 182.217 45.288 187.22 45.288C189.996 45.288 194.247 45.5602 200.002 46.1474L200.436 34.6894L197.544 34.0162C192.763 33.002 187.899 32.4219 183.012 32.2832C174.9 32.2832 169.059 34.5318 165.415 38.9432C161.771 43.3545 159.964 50.5874 159.964 60.5415C159.964 70.4956 161.713 77.7285 165.256 82.2114C168.799 86.6944 174.582 88.986 182.694 88.986C188.68 88.7613 194.632 87.9991 200.479 86.7087L200.045 75.1361L187.364 76.0098Z" fill="#1E1E1E"/>
<path d="M244.48 59.2519L258.664 33.6003H242.296L231.495 54.0528L225.899 55.0411V11.959H211.281V87.6964H225.899V67.5589L231.929 66.6136L242.918 87.6964H259.402L244.48 59.2519Z" fill="#1E1E1E"/>
<path d="M305.093 74.6776V14.1221H290.836V87.7397H331.192V74.6776H305.093Z" fill="#1E1E1E"/>
<path d="M384.446 57.1607C384.446 41.0145 376.58 32.9414 360.848 32.9414C344.885 32.9414 336.903 42.5375 336.903 61.7296C336.903 71.3639 338.744 78.3151 342.427 82.5832C346.109 86.8513 352.028 88.9901 360.183 88.9997C367.8 88.8891 375.376 87.8843 382.754 86.0063L382.508 75.4219L379.486 75.737C374.209 76.1667 368.208 76.4102 361.499 76.4102C358.87 76.5834 356.268 75.799 354.182 74.2045C352.476 72.7723 351.609 70.3804 351.522 67.0433H383.332L384.446 57.1607ZM351.363 56.1868C351.449 52.0476 352.201 49.0972 353.589 47.3642C354.978 45.6311 357.436 44.7288 360.819 44.7288C364.203 44.7288 366.603 45.6025 368.049 47.2496C369.495 48.8967 370.16 51.8901 370.16 56.1868H351.363Z" fill="#1E1E1E"/>
<path d="M466.547 39.143C463.77 35.0611 458.796 32.9701 451.653 32.9701C446.173 32.9701 440.086 34.6601 433.464 38.0116C430.282 34.6315 425.766 32.9414 419.915 32.9414C416.373 32.9414 412.093 34.3737 407.119 37.2382V34.2734H392.659V87.7393H407.119V47.7652L408.42 47.3355C411.089 46.3575 413.917 45.8721 416.763 45.9033C419.944 45.9033 422.012 46.9631 422.966 49.1402C423.92 51.3172 424.412 55.041 424.412 60.3117V87.8109H438.871V60.0396C438.871 57.1751 438.712 53.1934 438.438 47.8368L440.071 47.3355C442.804 46.447 445.655 45.9643 448.53 45.9033C451.552 45.9033 453.577 46.9631 454.603 49.1402C455.761 52.3815 456.253 55.8195 456.049 59.2518V87.7393H470.508V58.7219C470.643 49.7656 469.323 43.2393 466.547 39.143Z" fill="#1E1E1E"/>
<path d="M522.75 40.3315C518.933 35.4475 512.542 32.9697 503.562 32.9697C494.583 32.9697 488.235 35.4475 484.375 40.3315C480.514 45.2155 478.605 52.0473 478.605 60.8986C478.605 79.6324 486.905 88.9993 503.505 88.9993C520.104 88.9993 528.418 79.6324 528.447 60.8986C528.485 52.0473 526.586 45.1916 522.75 40.3315ZM511.544 73.0441C510.098 75.5935 507.423 76.8968 503.562 76.8968C499.702 76.8968 497.085 75.5935 495.624 73.0441C494.164 70.4947 493.397 66.4271 493.397 60.9559C493.397 55.4847 494.106 51.4744 495.624 48.968C497.142 46.4615 499.745 45.2298 503.562 45.2298C507.38 45.2298 510.04 46.4902 511.544 48.968C513.048 51.4457 513.771 55.456 513.771 60.9559C513.771 66.4557 513.019 70.423 511.544 73.0441Z" fill="#1E1E1E"/>
<path d="M579.821 39.3006C577.122 35.0611 572.158 32.9414 564.928 32.9414C560.113 33.1683 555.445 34.6505 551.394 37.2382V34.2734H536.935V87.7393H551.394V47.7652L552.71 47.3355C555.455 46.3422 558.362 45.8567 561.284 45.9033C564.509 45.9033 566.692 46.9631 567.762 49.1402C568.832 51.3172 569.381 54.683 569.381 59.2518V87.7393H583.928V58.7219C584 50.0138 582.612 43.5114 579.821 39.3006Z" fill="#1E1E1E"/>
<path d="M14.257 0H0V14.122H14.257V0Z" fill="#1E1E1E"/>
</g>
<defs>
<clipPath id="clip0_301_224">
<rect width="584" height="89" fill="white"/>
</clipPath>
</defs>
</svg>
