<svg width="280" height="57" viewBox="0 0 280 57" fill="none" xmlns="http://www.w3.org/2000/svg">
<g clip-path="url(#clip0_609_20)">
<path d="M41.6789 43.7917L33.5109 17.1524H25.4232L17.3471 43.6362L9.50068 17.1524H0L12.2463 55.7782H21.6666L29.4326 30.5054L37.279 55.7782H46.6188L58.9456 17.1524H49.5253L41.6789 43.7917Z" fill="#303030"/>
<path d="M91.2024 18.4744C88.0976 16.7227 84.5482 15.8454 80.955 15.9415C77.1465 15.8614 73.388 16.7911 70.0872 18.6299C67.0458 20.3734 64.5919 22.9316 63.022 25.9951C61.3572 29.2609 60.5222 32.8637 60.5865 36.5042C60.5213 40.1824 61.3974 43.8193 63.1369 47.091C64.7703 50.1382 67.2744 52.6676 70.3514 54.3785C73.671 56.1752 77.4273 57.0804 81.2307 57.0002C84.4944 57.0314 87.7368 56.4894 90.8003 55.4005C93.7481 54.3384 96.4726 52.769 98.842 50.7681L94.6029 44.3249C92.8408 45.7788 90.8715 46.9798 88.7554 47.8908C86.5379 48.8212 84.1417 49.2869 81.7247 49.2572C78.7568 49.3991 75.8431 48.4507 73.5681 46.6022C71.5232 44.8248 70.3285 42.1586 69.9608 38.7037H99.8299C99.8299 38.0928 99.8989 37.3707 99.8989 36.482C99.9893 32.7531 99.2406 29.0499 97.7046 25.6285C96.3362 22.6622 94.0688 20.1675 91.2024 18.4744ZM70.2021 32.4605C70.5616 29.882 71.871 27.5153 73.8898 25.7951C75.899 24.2698 78.4023 23.4826 80.955 23.5734C83.3769 23.4679 85.7487 24.2629 87.5836 25.7951C89.4259 27.5606 90.4814 29.9527 90.5246 32.4605H70.2021Z" fill="#303030"/>
<path d="M116.902 47.2802C116.424 46.3946 116.206 45.3998 116.27 44.403V2.33344H106.677V45.7916C106.677 52.6792 109.948 56.1192 116.488 56.1118C118.007 56.1296 119.517 55.9005 120.957 55.4342V48.0134C120.34 48.1613 119.708 48.2395 119.073 48.2467C118.655 48.2864 118.233 48.2179 117.852 48.048C117.47 47.8782 117.142 47.6132 116.902 47.2802Z" fill="#303030"/>
<path d="M136.293 47.2802C135.815 46.3946 135.597 45.3998 135.661 44.403V2.33344H126.091V45.7916C126.091 52.6792 129.362 56.1192 135.902 56.1118C137.421 56.1296 138.931 55.9005 140.371 55.4342V48.0134C139.755 48.1613 139.122 48.2395 138.487 48.2467C138.065 48.2905 137.639 48.224 137.253 48.0539C136.867 47.8839 136.535 47.6167 136.293 47.2802Z" fill="#303030"/>
<path d="M161.341 44.547L150.508 17.1523H140.617L156.471 55.7781H166.04L181.974 17.1523H172.083L161.341 44.547Z" fill="#303030"/>
<path d="M191.748 0.000368281C190.927 -0.0119809 190.112 0.140593 189.354 0.448446C188.597 0.7563 187.914 1.21274 187.348 1.78891C186.766 2.35026 186.306 3.01914 185.996 3.75579C185.686 4.49243 185.533 5.2818 185.545 6.07696C185.546 6.85214 185.706 7.61943 186.015 8.33448C186.325 9.04952 186.778 9.69813 187.348 10.2428C187.923 10.8064 188.608 11.2539 189.364 11.5594C190.119 11.8648 190.93 12.0221 191.748 12.0221C192.567 12.0221 193.378 11.8648 194.133 11.5594C194.888 11.2539 195.573 10.8064 196.148 10.2428C196.724 9.69289 197.18 9.03706 197.49 8.31398C197.8 7.5909 197.957 6.81518 197.952 6.03252C197.964 5.23736 197.81 4.448 197.5 3.71135C197.191 2.97471 196.731 2.30582 196.148 1.74447C195.579 1.17634 194.894 0.728156 194.137 0.428027C193.379 0.127898 192.566 -0.0176991 191.748 0.000368281Z" fill="#303030"/>
<path d="M196.538 17.1523H186.888V55.7781H196.538V17.1523Z" fill="#303030"/>
<path d="M217.655 7.05484H208.005V17.1529H201.802V24.7403H208.005V45.5362C208.005 49.1244 208.936 51.8905 210.785 53.8124C212.635 55.7342 215.748 56.6896 220.091 56.6896C222.036 56.6746 223.97 56.3941 225.835 55.8564V48.4912C224.718 48.6697 223.589 48.7737 222.457 48.8023C221.195 48.8824 219.941 48.5626 218.884 47.8913C218.458 47.5382 218.126 47.092 217.914 46.5897C217.702 46.0873 217.617 45.5434 217.667 45.003V24.7403H225.904V17.1529H217.655V7.05484Z" fill="#303030"/>
<path d="M268.774 48.1912C268.346 48.2368 267.914 48.1651 267.526 47.9844C267.138 47.8037 266.81 47.5212 266.58 47.1691C266.096 46.2141 265.878 45.1534 265.948 44.092V29.9836C266.005 27.3859 265.282 24.828 263.869 22.6184C262.427 20.4554 260.368 18.7423 257.941 17.686C255.079 16.4618 251.971 15.8662 248.842 15.9419C246.639 15.9273 244.446 16.2191 242.329 16.8084C240.318 17.3885 238.389 18.2056 236.585 19.2413C234.766 20.2824 233.114 21.5734 231.679 23.0738L237.09 29.2171C238.811 27.6348 240.742 26.2823 242.834 25.1956C244.731 24.2689 246.832 23.8001 248.957 23.8292C250.917 23.7321 252.853 24.2803 254.449 25.3845C255.092 25.8453 255.612 26.4471 255.968 27.1404C256.323 27.8337 256.503 28.5988 256.493 29.3726C256.517 29.7158 256.462 30.0597 256.333 30.3803C256.204 30.7008 256.004 30.9901 255.747 31.2278C254.974 31.7564 254.061 32.0609 253.116 32.1054L245.074 33.3163C240.265 33.968 236.577 35.3085 234.011 37.3377C232.758 38.306 231.757 39.5451 231.088 40.9555C230.42 42.3658 230.103 43.9081 230.163 45.4584C230.114 47.5239 230.659 49.5619 231.737 51.3461C232.822 53.0682 234.425 54.4286 236.332 55.2453C238.55 56.1984 240.959 56.6651 243.386 56.6117C246.497 56.6677 249.547 55.7651 252.094 54.0345C254.063 52.6621 255.644 50.8321 256.689 48.7133C256.943 50.5185 257.742 52.2112 258.986 53.579C259.925 54.4778 261.051 55.1727 262.289 55.6171C263.527 56.0615 264.849 56.2454 266.166 56.1563C267.032 56.1659 267.897 56.1027 268.751 55.9674C269.422 55.8714 270.08 55.7075 270.716 55.4786V48.0134C270.076 48.1334 269.426 48.193 268.774 48.1912ZM251.668 48.0134C250.099 48.9829 248.269 49.4815 246.407 49.4465C244.698 49.5413 243.012 49.032 241.662 48.0134C241.105 47.5654 240.66 47.0004 240.361 46.3614C240.062 45.7225 239.918 45.0261 239.939 44.3253C239.894 43.539 240.067 42.7554 240.438 42.0546C240.809 41.3539 241.367 40.7612 242.053 40.3371C243.758 39.3529 245.655 38.7212 247.625 38.4819L252.806 37.6377C253.532 37.5505 254.253 37.4244 254.966 37.26C255.479 37.1655 255.972 36.9891 256.425 36.7378V38.3264C256.45 40.2793 256.018 42.2124 255.161 43.9809C254.408 45.6133 253.198 47.0099 251.668 48.0134Z" fill="#303030"/>
<path d="M279.999 11.3529C280.031 12.4893 279.711 13.6091 279.081 14.5688C278.451 15.5285 277.539 16.2846 276.462 16.74C275.385 17.1955 274.192 17.3297 273.035 17.1255C271.879 16.9212 270.812 16.3878 269.971 15.5936C269.129 14.7993 268.553 13.7804 268.314 12.6672C268.075 11.5541 268.186 10.3974 268.631 9.34529C269.077 8.29321 269.837 7.39363 270.814 6.76175C271.791 6.12986 272.941 5.79444 274.117 5.79844C274.883 5.78067 275.644 5.9112 276.357 6.18237C277.07 6.45354 277.72 6.85986 278.268 7.37742C278.816 7.89498 279.251 8.51332 279.549 9.19606C279.846 9.8788 279.999 10.6121 279.999 11.3529ZM269.659 11.3529C269.641 11.9319 269.743 12.5086 269.96 13.0486C270.178 13.5885 270.505 14.0805 270.923 14.4953C271.341 14.9101 271.842 15.2391 272.395 15.4626C272.947 15.6862 273.541 15.7998 274.14 15.7965C274.733 15.7941 275.319 15.6759 275.863 15.449C276.407 15.2221 276.898 14.8913 277.307 14.4763C277.716 14.0613 278.034 13.5707 278.242 13.034C278.45 12.4973 278.543 11.9255 278.517 11.3529C278.547 10.7722 278.456 10.1915 278.247 9.64617C278.038 9.10085 277.717 8.60227 277.303 8.18077C276.888 7.75926 276.39 7.42364 275.837 7.19429C275.285 6.96495 274.689 6.84668 274.088 6.84668C273.487 6.84668 272.892 6.96495 272.339 7.19429C271.787 7.42364 271.288 7.75926 270.874 8.18077C270.46 8.60227 270.138 9.10085 269.93 9.64617C269.721 10.1915 269.629 10.7722 269.659 11.3529ZM273.255 14.2079H271.877V8.65344C272.604 8.5269 273.343 8.46738 274.082 8.4757C274.772 8.42313 275.463 8.56595 276.07 8.88673C276.254 9.0355 276.4 9.22293 276.498 9.43471C276.595 9.64649 276.641 9.87703 276.633 10.1087C276.61 10.4132 276.486 10.7023 276.279 10.9326C276.071 11.163 275.793 11.3221 275.484 11.3862V11.4529C275.768 11.5671 276.015 11.7532 276.199 11.9917C276.383 12.2302 276.497 12.5123 276.529 12.8082C276.58 13.2926 276.725 13.7636 276.954 14.1968H275.518C275.289 13.7725 275.134 13.3146 275.059 12.8415C274.956 12.2416 274.599 11.9639 273.91 11.9639H273.255V14.2079ZM273.255 11.0641H273.876C274.611 11.0641 275.208 10.8308 275.208 10.2531C275.208 9.67547 274.829 9.40885 273.991 9.40885C273.744 9.4034 273.497 9.42577 273.255 9.47551V11.0641Z" fill="#303030"/>
</g>
<defs>
<clipPath id="clip0_609_20">
<rect width="280" height="57" fill="white"/>
</clipPath>
</defs>
</svg>
