<svg width="404" height="70" viewBox="0 0 404 70" fill="none" xmlns="http://www.w3.org/2000/svg">
<path d="M358.927 3.06072V68.1226H403.294V58.1142H369.369V40.4185H398.48V30.4101H369.369V13.0839H402.054V3.06072H358.927ZM315.269 35.4956H305.89V13.0839H315.534C319.699 13.0839 322.668 14.2518 324.411 16.5728C326.168 18.8938 327.04 21.4217 327.04 24.1715C327.04 25.7829 326.671 27.4682 325.917 29.2274C325.179 30.9866 323.923 32.4798 322.166 33.692C320.408 34.919 318.104 35.5251 315.254 35.5251M313.821 3.09029H295.433V68.1226H305.875V45.504H315.254C320.438 45.504 324.677 44.4839 327.97 42.4142C331.279 40.3593 333.671 37.7131 335.163 34.4607C336.655 31.2084 337.393 27.7195 337.393 23.9645C337.393 17.4154 335.311 12.2856 331.146 8.58973C326.981 4.89387 321.206 3.04594 313.821 3.04594M237.478 43.8926L245.867 23.3436L253.99 43.8926H237.478ZM263.457 68.1078H275.421L246.694 0.384921H246.074L217.318 68.1226H227.582L233.83 52.8365H257.49L263.472 68.1226L263.457 68.1078ZM165.802 13.0839H175.446C178.238 13.0839 180.497 13.69 182.225 14.917C183.953 16.1441 185.179 17.5928 185.888 19.2929C186.597 20.993 186.966 22.6783 186.966 24.3489C186.966 27.2169 186.021 29.7892 184.145 32.0806C182.27 34.372 179.257 35.5251 175.077 35.5251H165.787V13.0839H165.802ZM202.947 68.1374L187.144 43.0203C190.777 41.1724 193.435 38.541 195.134 35.1112C196.832 31.6814 197.674 27.9708 197.674 23.9793C197.674 17.4302 195.488 12.3004 191.117 8.60451C186.745 4.90865 180.926 3.06072 173.659 3.06072H155.36V68.1226H165.802V45.504H176.244L190.88 68.1226H202.932L202.947 68.1374ZM88.9268 58.129V12.9952H99.8267C103.401 12.9952 106.872 13.7935 110.224 15.4049C113.592 17.0163 116.354 19.5295 118.525 22.9592C120.696 26.389 121.789 30.6614 121.789 35.7912C121.789 40.4924 120.799 44.543 118.791 47.8989C116.797 51.2695 114.035 53.8122 110.49 55.5419C106.946 57.2716 102.854 58.129 98.2168 58.129H88.9268ZM78.4848 68.1374H100.093C105.926 68.1374 111.317 66.8364 116.25 64.2494C121.183 61.6622 125.127 57.9664 128.081 53.1618C131.035 48.3719 132.497 42.8134 132.497 36.5008C132.497 30.7797 131.271 25.3837 128.834 20.3278C126.397 15.2718 122.513 11.1177 117.181 7.90969C111.849 4.6869 105.114 3.09029 96.9614 3.09029H78.4848V68.1226V68.1374ZM23.0403 59.8291C19.5843 59.8291 16.6895 58.809 14.3411 56.7837C11.9928 54.7584 10.8112 52.1713 10.8112 49.0076C10.8112 46.0362 11.8894 43.4343 14.0753 41.2315C16.2464 39.0288 18.8753 37.7722 21.9769 37.4766L34.2947 54.0044C31.9168 57.8777 28.1653 59.8143 23.0403 59.8143M56.9657 68.1226L44.7366 51.8608L53.5835 29.3457H44.0277L38.5778 43.6412L23.4834 23.5358C23.4834 23.5358 22.9222 22.6636 21.9622 21.0817C21.0169 19.4999 20.5295 17.8442 20.5295 16.1293C20.5295 14.1039 21.1794 12.4039 22.4939 11.029C23.8083 9.65413 25.5807 8.97409 27.8552 8.97409C29.406 8.97409 31.0306 9.47673 32.7143 10.4968C34.4128 11.5168 36.2738 12.9656 38.2972 14.8727L43.4812 7.98361C41.5169 5.72174 39.0356 3.85903 36.0227 2.39547C33.0245 0.931908 29.7309 0.20752 26.1567 0.20752C22.5825 0.20752 19.8354 0.917124 17.3689 2.35112C14.9024 3.78511 13.0266 5.66261 11.7417 7.98361C10.4568 10.3046 9.82168 12.7143 9.82168 15.2275C9.82168 18.8642 11.4611 23.0923 14.7251 27.9117L16.5122 30.3214C11.8156 31.6962 7.88688 34.1059 4.72622 37.5653C1.56556 41.0246 0 45.0161 0 49.5398C0 53.2357 0.945245 56.5767 2.8505 59.5482C4.75576 62.5197 7.34042 64.8703 10.6192 66.5556C13.8981 68.2557 17.5461 69.0983 21.6077 69.0983C25.6693 69.0983 29.214 68.3887 32.2712 66.9547C35.3285 65.5207 37.8246 63.6137 39.7298 61.2335L44.9139 68.1078H56.9657V68.1226Z" fill="#343434"/>
</svg>
