<svg width="364" height="61" viewBox="0 0 364 61" fill="none" xmlns="http://www.w3.org/2000/svg">
<path fill-rule="evenodd" clip-rule="evenodd" d="M168.039 6.0989C168.039 3.21612 165.915 1.03802 163.02 1.03802C160.254 1.03802 157.873 3.21612 157.873 6.0989C157.873 8.78948 160.254 11.0316 163.02 11.0316C165.915 11.0316 168.039 8.78948 168.039 6.0989ZM158.966 16.0286V46.1375H167.137V16.0286H158.966ZM207.608 1.67826V46.0089V46.073H213.334V41.7808C215.2 44.9199 218.481 46.8417 222.92 46.8417C231.735 46.8417 236.689 39.9231 236.689 31.1466C236.689 22.5624 232.121 15.7078 223.113 15.7078C218.223 15.7078 214.749 18.078 213.334 20.7046V1.67826H207.608ZM213.269 31.1462C213.269 24.7401 216.936 20.7683 222.083 20.7683C227.487 20.7683 230.833 24.8041 230.833 31.1462C230.833 37.4884 227.423 41.6524 222.083 41.6524C216.872 41.6524 213.269 37.5524 213.269 31.1462ZM108.655 27.6881L101.192 28.8412C96.1731 29.61 92.1841 32.4928 92.1841 37.938C92.1841 42.5504 96.1731 46.9707 102.607 46.9707C106.789 46.9707 109.556 45.177 111.164 42.9989L114.831 46.1379H118.949V41.3333V26.535C118.949 20.4492 115.346 15.068 105.76 15.068C97.5886 15.068 93.2779 20.257 92.7632 24.9975L100.033 26.535C100.291 23.9085 102.221 21.6663 105.824 21.6663C109.234 21.6663 110.907 23.4601 110.907 25.5741C110.907 26.5991 110.392 27.4319 108.655 27.6881ZM110.907 32.621V33.9663C110.907 39.2834 107.754 40.949 104.28 40.8849C101.642 40.8849 100.355 39.2193 100.355 37.4256C100.355 35.0553 101.964 33.9663 104.087 33.6459L110.907 32.621ZM32.3488 30.9541C32.3488 40.1789 25.5932 46.9695 16.4572 46.9695C7.32107 46.9695 0.565521 40.1789 0.565521 30.9541C0.565521 21.6651 7.32107 14.9386 16.4572 14.9386C25.5932 14.9386 32.3488 21.601 32.3488 30.9541ZM24.1133 30.9543C24.1133 25.3168 20.446 22.37 16.3927 22.37C12.3394 22.37 8.67208 25.3168 8.67208 30.9543C8.67208 36.5917 12.3394 39.5385 16.3927 39.5385C20.446 39.5385 24.1133 36.5276 24.1133 30.9543ZM37.2377 15.9645H40.3903L45.28 20.1285C47.2101 16.4129 51.1991 15.7082 53.7083 15.7082C54.287 15.7082 54.7367 15.751 55.2683 15.8017L55.2683 15.8017C55.3869 15.813 55.5095 15.8247 55.6385 15.8363V24.0362C54.8664 23.844 53.9657 23.78 53.1936 23.78C49.0116 23.78 45.4087 25.83 45.4087 32.3002V46.0734H37.2377V15.9645ZM125.125 46.1374H133.296H133.36V28.7767C133.36 25.2534 135.419 22.4987 139.022 22.4987C142.947 22.4987 144.62 25.0612 144.62 28.5205V46.0734H152.79V27.1111C152.79 20.5128 149.445 15.1957 141.853 15.1957C138.572 15.1957 135.033 16.605 133.103 19.744L128.664 16.0285H125.125V46.1374ZM188.305 39.5389C184.123 39.5389 180.585 36.4639 180.585 31.0187C180.585 25.5734 184.123 22.5625 188.305 22.6266C192.294 22.6266 194.289 25.1891 194.996 27.6875L202.267 25.1891C200.98 20.0641 196.283 15.0033 188.048 15.0033C179.169 15.0033 172.349 21.7297 172.349 31.0187C172.349 40.3076 179.362 47.0341 188.305 47.0341C196.283 47.0341 201.173 41.8451 202.46 36.8483L195.254 34.478C194.61 36.7842 192.487 39.5389 188.305 39.5389ZM257.534 28.1358L249.556 29.2889C244.345 30.0576 240.549 32.8763 240.549 38.2575C240.549 42.934 244.409 47.098 250.457 47.098C254.703 47.098 257.405 45.3043 259.014 43.5106L262.166 46.2012H265.512C265.512 46.2012 265.576 43.959 265.576 41.3325V26.5983C265.576 20.8968 262.166 15.8359 253.288 15.8359C246.854 15.8359 241.9 19.7437 241.192 25.3811L246.725 26.6624C247.111 23.203 249.299 20.7046 253.416 20.7046C257.856 20.7046 259.786 23.0749 259.786 25.9577C259.786 26.9827 259.335 27.8795 257.534 28.1358ZM259.786 32.1717V33.517C259.786 39.9231 255.99 42.1653 251.229 42.2293C248.269 42.2293 246.403 40.1153 246.403 37.9372C246.403 35.3107 248.269 33.9654 250.714 33.517L259.786 32.1717ZM282.175 42.1021C277.993 42.1021 275.741 39.7319 275.291 36.5928L270.144 38.4506C270.594 41.91 274.068 47.0349 282.175 47.0349C289.509 47.0349 292.984 42.1021 292.984 37.9381C292.984 33.5179 290.217 30.3148 284.813 29.1617L279.987 28.1367C277.671 27.6883 276.577 26.5352 276.577 24.6133C276.577 22.6274 278.508 20.7055 281.467 20.7055C286.228 20.7055 287.258 24.0368 287.644 25.5742L292.726 23.6524C292.019 21.0899 289.574 15.7728 281.467 15.7728C275.741 15.7728 270.98 20.0009 270.98 25.0617C270.98 29.2257 273.682 32.3648 278.379 33.3257L283.397 34.4147C285.842 34.9272 287.193 36.2725 287.193 38.1944C287.193 40.3084 285.456 42.1021 282.175 42.1021ZM305.466 5.52208C305.466 3.1518 303.664 1.35807 301.284 1.35807C299.032 1.35807 297.166 3.08774 297.166 5.52208C297.166 7.76423 299.032 9.62202 301.284 9.62202C303.664 9.62202 305.466 7.76423 305.466 5.52208ZM298.452 16.6686V46.137H304.178V16.6686H298.452ZM323.48 41.7167C318.655 41.7167 314.409 38.0011 314.409 31.3387C314.409 24.4841 318.655 21.0888 323.48 20.8966C328.499 20.8966 330.622 24.2919 331.394 27.1747L336.606 24.9966C335.254 20.5123 331.33 15.6436 323.416 15.6436C314.988 15.6436 308.554 22.1779 308.554 31.2746C308.554 40.2432 314.859 46.9697 323.48 46.9697C331.201 46.9697 335.319 42.037 336.799 37.8089L331.716 35.6308C331.072 38.0011 329.014 41.7167 323.48 41.7167ZM345.163 36.5929C345.614 39.7319 347.866 42.1022 352.048 42.1022C355.329 42.1022 357.066 40.3084 357.066 38.1944C357.066 36.2726 355.715 34.9273 353.27 34.4148L348.252 33.3257C343.555 32.3648 340.853 29.2258 340.853 25.0618C340.853 20.0009 345.614 15.7728 351.34 15.7728C359.446 15.7728 361.891 21.0899 362.599 23.6524L357.516 25.5743C357.13 24.0368 356.101 20.7056 351.34 20.7056C348.38 20.7056 346.45 22.6274 346.45 24.6133C346.45 26.5352 347.544 27.6883 349.86 28.1367L354.685 29.1617C360.09 30.3148 362.856 33.5179 362.856 37.9382C362.856 42.1022 359.382 47.0349 352.048 47.0349C343.941 47.0349 340.467 41.91 340.016 38.4506L345.163 36.5929ZM88.9668 19.8083L89.2885 19.8723V13.274H89.0311C85.8785 13.5302 83.2406 14.8755 81.5035 17.1177C79.316 15.7083 76.8068 14.9396 74.0402 14.9396H72.8178C64.9685 14.8115 58.9207 20.7692 58.792 28.0722V29.2253C58.792 33.5815 60.7865 37.4252 63.9391 39.9236L59.564 47.4829C57.9556 50.4297 58.985 53.4406 60.5935 54.6578C62.3949 56.0031 64.6468 56.0031 66.7056 55.2984C69.0218 54.5297 79.895 50.9422 80.8601 60.9359L88.9668 59.2062C87.7443 50.1094 78.8013 44.2158 67.542 48.5079C66.1266 49.0204 65.8692 48.3157 66.1909 47.7392L69.2792 42.358C70.2442 42.5502 71.2737 42.6783 72.3031 42.6783H73.5255C81.3748 42.8064 87.4226 36.8487 87.5513 29.5457V28.3925C87.5513 25.3176 86.5862 22.627 84.9134 20.3848C85.8785 19.9364 86.9723 19.6802 88.259 19.6802C88.36 19.7003 88.4483 19.7204 88.5279 19.7385C88.7019 19.7781 88.8343 19.8083 88.9668 19.8083ZM79.4446 29.225C79.3803 32.8125 77.3214 35.6953 73.4611 35.6312H72.8821C69.0218 35.5671 67.0273 32.6203 67.0916 29.0329V28.4563C67.156 24.8688 69.2148 21.9861 73.0751 22.0501H73.6542C77.5145 22.1142 79.509 25.061 79.4446 28.6485V29.225Z" fill="#303030"/>
</svg>
