<svg width="680" height="104" viewBox="0 0 680 104" fill="none" xmlns="http://www.w3.org/2000/svg">
<g clip-path="url(#clip0_601_2)">
<path d="M75.5404 65.2664C73.5605 62.1139 70.6066 59.6832 67.1208 58.3382C70.202 56.4926 72.7264 53.8566 74.429 50.7071C76.0289 47.1082 76.7723 43.1912 76.6012 39.2604C76.6012 31.2611 74.356 25.4709 69.8656 21.8896C65.3863 18.2916 58.6338 16.501 49.6586 16.501H16.6033V85.9675H33.2067V66.5717H49.2713C56.7142 66.5717 60.4412 70.0191 60.4525 76.9139C60.4915 78.1569 60.269 79.3943 59.7992 80.547C59.3295 81.6996 58.6229 82.7421 57.7245 83.6079C55.2625 85.3025 52.2923 86.1113 49.3049 85.9005H33.2067V102.401H50.1469C59.0717 102.401 65.9589 100.376 70.8591 96.3431C75.7593 92.31 78.2683 86.0846 78.2683 77.7674C78.4682 73.4356 77.528 69.1268 75.5404 65.2664V65.2664ZM48.8334 51.8785H33.2067V31.4452H48.8334C55.5691 31.4452 58.9369 34.7922 58.9369 41.6535C58.9369 48.5148 55.5691 51.8785 48.8334 51.8785Z" fill="#1E1E1E"/>
<path d="M90.763 13.9734V102.467H107.771V13.9734H90.763Z" fill="#1E1E1E"/>
<path d="M174.067 89.5152C173.431 88.1912 173.086 86.7478 173.056 85.2812V58.974C173.056 51.5772 171.254 46.155 167.634 42.8081C164.014 39.4611 158.153 37.7876 149.97 37.7876C141.212 37.8836 132.505 39.1214 124.071 41.4693L124.576 53.1837L148.488 52.1796C150.508 52.0029 152.53 52.5037 154.23 53.6021C155.426 54.5727 155.914 56.3633 155.914 58.974V62.8899L142.308 63.894C134.781 64.4128 129.173 66.0696 125.469 68.9145C121.764 71.7594 120.013 76.4954 120.013 83.2563C120.013 97.1016 126.58 104.013 139.715 103.991C146.204 103.964 152.599 102.452 158.406 99.5728C160.791 101.216 163.455 102.418 166.27 103.121C169.688 103.766 173.164 104.057 176.643 103.991L177.148 91.2054C175.943 91.0502 174.841 90.4461 174.067 89.5152V89.5152ZM155.981 88.1764L154.078 88.6951C150.648 89.6628 147.103 90.1748 143.537 90.218C139.383 90.218 137.301 87.903 137.29 83.273C137.29 78.6207 139.698 76.0938 144.413 75.6921L155.981 74.6713V88.1764Z" fill="#1E1E1E"/>
<path d="M218.202 88.8121C212.274 88.8121 208.345 87.5291 206.414 84.963C204.478 82.3859 203.552 77.6499 203.552 70.7551C203.552 63.8603 204.478 59.0407 206.414 56.6309C208.351 54.2211 212.207 52.9157 218.033 52.9157C221.267 52.9157 226.217 53.2337 232.919 53.9198L233.424 40.5319L230.057 39.7454C224.489 38.5603 218.825 37.8825 213.133 37.7205C203.686 37.7205 196.883 40.3478 192.64 45.5022C188.396 50.6565 186.292 59.1076 186.292 70.7384C186.292 82.3691 188.329 90.8203 192.455 96.0583C196.58 101.296 203.316 103.974 212.763 103.974C219.734 103.711 226.666 102.821 233.475 101.313L232.97 87.7912L218.202 88.8121Z" fill="#1E1E1E"/>
<path d="M284.717 69.232L301.236 39.2598H282.174L269.595 63.1572L263.078 64.3119V13.9734H246.054V102.467H263.078V78.9382L270.1 77.8337L282.898 102.467H302.095L284.717 69.232Z" fill="#1E1E1E"/>
<path d="M355.306 87.2561V16.501H338.703V102.518H385.701V87.2561H355.306Z" fill="#1E1E1E"/>
<path d="M447.72 66.7889C447.72 47.9231 438.559 38.4902 420.238 38.4902C401.648 38.4902 392.352 49.7026 392.352 72.1274C392.352 83.3844 394.497 91.5064 398.785 96.4934C403.073 101.48 409.966 103.979 419.463 103.991C428.334 103.861 437.157 102.687 445.749 100.493L445.463 88.1259L441.944 88.4941C435.797 88.9961 428.809 89.2806 420.996 89.2806C417.934 89.483 414.904 88.5665 412.475 86.7035C410.488 85.03 409.478 82.2352 409.377 78.336H446.423L447.72 66.7889ZM409.192 65.651C409.293 60.8146 410.168 57.3672 411.785 55.3423C413.401 53.3173 416.264 52.263 420.204 52.263C424.145 52.263 426.94 53.2839 428.624 55.2084C430.308 57.1329 431.082 60.6305 431.082 65.651H409.192Z" fill="#1E1E1E"/>
<path d="M543.333 45.7364C540.099 40.967 534.307 38.5237 525.988 38.5237C519.606 38.5237 512.517 40.4984 504.805 44.4144C501.1 40.465 495.841 38.4902 489.026 38.4902C484.901 38.4902 479.916 40.1637 474.124 43.5107V40.0466H457.284V102.518H474.124V55.8108L475.639 55.3088C478.748 54.1661 482.041 53.5989 485.355 53.6353C489.06 53.6353 491.468 54.8737 492.579 57.4174C493.691 59.9611 494.263 64.3122 494.263 70.4706V102.602H511.102V70.1526C511.102 66.8057 510.917 62.1534 510.597 55.8945L512.5 55.3088C515.683 54.2706 519.002 53.7066 522.351 53.6353C525.87 53.6353 528.228 54.8737 529.423 57.4174C530.772 61.2047 531.344 65.2218 531.107 69.2322V102.518H547.946V68.613C548.104 58.1482 546.566 50.5226 543.333 45.7364Z" fill="#1E1E1E"/>
<path d="M608.786 47.1252C604.341 41.4186 596.898 38.5234 586.441 38.5234C575.984 38.5234 568.591 41.4186 564.095 47.1252C559.599 52.8318 557.376 60.8143 557.376 71.1565C557.376 93.0457 567.042 103.99 586.373 103.99C605.705 103.99 615.387 93.0457 615.421 71.1565C615.466 60.8143 613.254 52.8039 608.786 47.1252ZM595.736 85.3476C594.052 88.3265 590.937 89.8493 586.441 89.8493C581.945 89.8493 578.897 88.3265 577.196 85.3476C575.495 82.3688 574.603 77.6161 574.603 71.2234C574.603 64.8307 575.428 60.1449 577.196 57.2163C578.964 54.2877 581.995 52.8485 586.441 52.8485C590.886 52.8485 593.985 54.3212 595.736 57.2163C597.487 60.1114 598.329 64.7972 598.329 71.2234C598.329 77.6496 597.454 82.2852 595.736 85.3476Z" fill="#1E1E1E"/>
<path d="M675.25 45.9205C672.107 40.967 666.326 38.4902 657.906 38.4902C652.299 38.7554 646.862 40.4872 642.145 43.5107V40.0466H625.305V102.518H642.145V55.8108L643.677 55.3088C646.874 54.1481 650.259 53.5809 653.663 53.6353C657.418 53.6353 659.96 54.8737 661.207 57.4174C662.453 59.9611 663.093 63.8938 663.093 69.2322V102.518H680.033V68.613C680.117 58.4382 678.5 50.8406 675.25 45.9205Z" fill="#1E1E1E"/>
<path d="M16.6034 0H0V16.5006H16.6034V0Z" fill="#1E1E1E"/>
</g>
<defs>
<clipPath id="clip0_601_2">
<rect width="680" height="104" fill="white"/>
</clipPath>
</defs>
</svg>
