<svg width="280" height="57" viewBox="0 0 280 57" fill="none" xmlns="http://www.w3.org/2000/svg">
<g clip-path="url(#clip0_783_596)">
<path d="M41.6789 43.7917L33.5109 17.1525H25.4232L17.3471 43.6362L9.50068 17.1525H0L12.2463 55.7783H21.6666L29.4326 30.5054L37.279 55.7783H46.6188L58.9456 17.1525H49.5253L41.6789 43.7917Z" fill="white"/>
<path d="M91.2023 18.4744C88.0975 16.7227 84.5481 15.8454 80.9549 15.9415C77.1464 15.8614 73.388 16.7911 70.0871 18.6299C67.0458 20.3734 64.5918 22.9316 63.0219 25.9951C61.3571 29.2609 60.5222 32.8637 60.5865 36.5042C60.5213 40.1824 61.3974 43.8193 63.1368 47.091C64.7703 50.1382 67.2744 52.6676 70.3514 54.3785C73.671 56.1752 77.4273 57.0804 81.2306 57.0002C84.4943 57.0314 87.7368 56.4894 90.8002 55.4005C93.748 54.3384 96.4725 52.769 98.8419 50.7681L94.6028 44.3249C92.8408 45.7788 90.8714 46.9798 88.7553 47.8908C86.5378 48.8212 84.1417 49.2869 81.7246 49.2572C78.7567 49.3991 75.8431 48.4507 73.568 46.6022C71.5232 44.8248 70.3284 42.1586 69.9608 38.7037H99.8299C99.8299 38.0928 99.8988 37.3707 99.8988 36.482C99.9893 32.7531 99.2406 29.0499 97.7046 25.6285C96.3362 22.6622 94.0688 20.1675 91.2023 18.4744ZM70.202 32.4605C70.5616 29.882 71.8709 27.5153 73.8897 25.7951C75.8989 24.2698 78.4022 23.4826 80.9549 23.5734C83.3768 23.4679 85.7486 24.2629 87.5835 25.7951C89.4259 27.5606 90.4813 29.9527 90.5245 32.4605H70.202Z" fill="white"/>
<path d="M116.902 47.2802C116.424 46.3946 116.206 45.3998 116.27 44.403V2.33344H106.677V45.7916C106.677 52.6792 109.948 56.1192 116.488 56.1118C118.006 56.1296 119.517 55.9005 120.957 55.4342V48.0134C120.34 48.1613 119.708 48.2395 119.073 48.2467C118.655 48.2864 118.233 48.2179 117.852 48.048C117.47 47.8782 117.142 47.6132 116.902 47.2802Z" fill="white"/>
<path d="M136.293 47.2802C135.815 46.3946 135.597 45.3998 135.661 44.403V2.33344H126.091V45.7916C126.091 52.6792 129.362 56.1192 135.902 56.1118C137.421 56.1296 138.931 55.9005 140.371 55.4342V48.0134C139.754 48.1613 139.122 48.2395 138.487 48.2467C138.065 48.2905 137.639 48.224 137.253 48.0539C136.867 47.8839 136.535 47.6167 136.293 47.2802V47.2802Z" fill="white"/>
<path d="M161.342 44.547L150.508 17.1523H140.617L156.471 55.7781H166.04L181.974 17.1523H172.083L161.342 44.547Z" fill="white"/>
<path d="M191.748 0.000398799C190.927 -0.0119504 190.112 0.140623 189.354 0.448477C188.597 0.756331 187.914 1.21277 187.348 1.78894C186.766 2.35029 186.306 3.01918 185.996 3.75582C185.686 4.49246 185.533 5.28183 185.545 6.07699C185.546 6.85217 185.706 7.61946 186.015 8.33451C186.325 9.04955 186.778 9.69816 187.348 10.2428C187.923 10.8065 188.608 11.254 189.364 11.5594C190.119 11.8649 190.93 12.0222 191.748 12.0222C192.567 12.0222 193.378 11.8649 194.133 11.5594C194.888 11.254 195.573 10.8065 196.148 10.2428C196.724 9.69292 197.18 9.03709 197.49 8.31401C197.8 7.59093 197.957 6.81521 197.952 6.03255C197.964 5.23739 197.81 4.44803 197.5 3.71138C197.191 2.97474 196.731 2.30585 196.148 1.7445C195.579 1.17637 194.894 0.728187 194.137 0.428057C193.38 0.127928 192.566 -0.0176686 191.748 0.000398799V0.000398799Z" fill="white"/>
<path d="M196.538 17.1523H186.888V55.7781H196.538V17.1523Z" fill="white"/>
<path d="M217.655 7.05487H208.005V17.1529H201.802V24.7403H208.005V45.5363C208.005 49.1244 208.936 51.8906 210.785 53.8124C212.635 55.7343 215.748 56.6896 220.091 56.6896C222.036 56.6746 223.97 56.3941 225.835 55.8565V48.4912C224.718 48.6698 223.589 48.7737 222.457 48.8023C221.195 48.8825 219.941 48.5627 218.884 47.8914C218.458 47.5383 218.126 47.092 217.914 46.5897C217.702 46.0874 217.617 45.5434 217.667 45.003V24.7403H225.904V17.1529H217.655V7.05487Z" fill="white"/>
<path d="M268.774 48.1912C268.346 48.2368 267.914 48.1652 267.526 47.9845C267.138 47.8038 266.81 47.5213 266.58 47.1692C266.096 46.2141 265.878 45.1535 265.948 44.092V29.9837C266.004 27.386 265.282 24.8281 263.869 22.6184C262.427 20.4555 260.368 18.7424 257.941 17.6861C255.079 16.4619 251.971 15.8662 248.842 15.942C246.639 15.9273 244.446 16.2191 242.329 16.8085C240.318 17.3886 238.389 18.2057 236.585 19.2413C234.766 20.2825 233.114 21.5735 231.679 23.0739L237.09 29.2172C238.811 27.6348 240.742 26.2823 242.834 25.1957C244.731 24.269 246.832 23.8002 248.957 23.8293C250.917 23.7321 252.853 24.2804 254.449 25.3846C255.092 25.8453 255.612 26.4471 255.968 27.1405C256.323 27.8338 256.503 28.5989 256.493 29.3727C256.517 29.7159 256.462 30.0598 256.333 30.3803C256.204 30.7008 256.004 30.9901 255.747 31.2279C254.974 31.7565 254.061 32.0609 253.116 32.1055L245.074 33.3163C240.265 33.9681 236.577 35.3086 234.011 37.3378C232.758 38.3061 231.757 39.5452 231.088 40.9555C230.42 42.3659 230.103 43.9081 230.163 45.4584C230.114 47.524 230.659 49.562 231.737 51.3462C232.822 53.0682 234.425 54.4287 236.332 55.2454C238.55 56.1985 240.959 56.6651 243.385 56.6118C246.497 56.6677 249.547 55.7651 252.093 54.0345C254.063 52.6622 255.643 50.8321 256.689 48.7133C256.943 50.5186 257.742 52.2112 258.986 53.5791C259.925 54.4779 261.05 55.1727 262.289 55.6172C263.527 56.0616 264.849 56.2454 266.166 56.1563C267.032 56.166 267.897 56.1028 268.751 55.9675C269.422 55.8714 270.08 55.7076 270.716 55.4787V48.0135C270.076 48.1335 269.426 48.193 268.774 48.1912V48.1912ZM251.668 48.0135C250.099 48.9829 248.269 49.4816 246.407 49.4465C244.698 49.5414 243.012 49.032 241.662 48.0135C241.104 47.5654 240.659 47.0005 240.361 46.3615C240.062 45.7225 239.918 45.0262 239.939 44.3253C239.894 43.5391 240.067 42.7555 240.438 42.0547C240.809 41.354 241.367 40.7612 242.053 40.3372C243.757 39.353 245.655 38.7213 247.625 38.482L252.806 37.6377C253.532 37.5506 254.253 37.4245 254.965 37.26C255.478 37.1656 255.972 36.9891 256.424 36.7379V38.3265C256.45 40.2794 256.018 42.2125 255.161 43.9809C254.408 45.6134 253.198 47.01 251.668 48.0135V48.0135Z" fill="white"/>
<path d="M279.999 11.3529C280.031 12.4893 279.711 13.6091 279.081 14.5688C278.451 15.5286 277.539 16.2846 276.462 16.7401C275.385 17.1956 274.192 17.3298 273.035 17.1255C271.879 16.9213 270.812 16.3879 269.97 15.5936C269.129 14.7993 268.553 13.7804 268.314 12.6672C268.075 11.5541 268.186 10.3974 268.631 9.34533C269.077 8.29325 269.837 7.39366 270.814 6.76178C271.791 6.12989 272.941 5.79447 274.117 5.79848C274.883 5.7807 275.644 5.91123 276.357 6.1824C277.07 6.45357 277.72 6.85989 278.268 7.37745C278.816 7.89501 279.251 8.51336 279.549 9.19609C279.846 9.87883 279.999 10.6122 279.999 11.3529ZM269.659 11.3529C269.641 11.932 269.743 12.5087 269.96 13.0486C270.178 13.5885 270.505 14.0805 270.923 14.4953C271.341 14.9101 271.842 15.2391 272.394 15.4627C272.947 15.6862 273.541 15.7998 274.14 15.7965C274.732 15.7941 275.319 15.6759 275.863 15.449C276.407 15.2222 276.898 14.8913 277.307 14.4763C277.716 14.0613 278.034 13.5708 278.242 13.034C278.45 12.4973 278.543 11.9255 278.517 11.3529C278.547 10.7722 278.456 10.1915 278.247 9.6462C278.038 9.10088 277.717 8.6023 277.303 8.1808C276.888 7.75929 276.39 7.42367 275.837 7.19432C275.284 6.96498 274.689 6.84671 274.088 6.84671C273.487 6.84671 272.892 6.96498 272.339 7.19432C271.787 7.42367 271.288 7.75929 270.874 8.1808C270.459 8.6023 270.138 9.10088 269.929 9.6462C269.721 10.1915 269.629 10.7722 269.659 11.3529V11.3529ZM273.255 14.2079H271.877V8.65347C272.604 8.52693 273.343 8.46742 274.082 8.47573C274.772 8.42316 275.463 8.56598 276.07 8.88676C276.254 9.03553 276.4 9.22296 276.498 9.43474C276.595 9.64652 276.641 9.87706 276.633 10.1087C276.61 10.4132 276.486 10.7023 276.279 10.9327C276.071 11.163 275.793 11.3222 275.484 11.3863V11.4529C275.768 11.5671 276.015 11.7533 276.199 11.9918C276.383 12.2303 276.497 12.5123 276.529 12.8082C276.58 13.2926 276.725 13.7636 276.954 14.1968H275.518C275.289 13.7725 275.134 13.3146 275.059 12.8415C274.955 12.2417 274.599 11.9639 273.91 11.9639H273.255V14.2079ZM273.255 11.0641H273.876C274.611 11.0641 275.208 10.8308 275.208 10.2532C275.208 9.6755 274.829 9.40888 273.99 9.40888C273.744 9.40343 273.497 9.4258 273.255 9.47554V11.0641Z" fill="white"/>
</g>
<defs>
<clipPath id="clip0_783_596">
<rect width="280" height="57" fill="white"/>
</clipPath>
</defs>
</svg>
