<svg width="291" height="72" viewBox="0 0 291 72" fill="none" xmlns="http://www.w3.org/2000/svg">
<path d="M250.087 11.988V57.3202H281V50.3468H257.362V38.0172H277.645V31.0438H257.362V18.9717H280.136V11.988H250.087ZM219.667 34.5871H213.132V18.9717H219.852C222.754 18.9717 224.823 19.7854 226.037 21.4026C227.262 23.0197 227.869 24.7811 227.869 26.697C227.869 27.8197 227.611 28.994 227.087 30.2197C226.572 31.4455 225.697 32.4858 224.473 33.3305C223.248 34.1854 221.643 34.6077 219.657 34.6077M218.658 12.0086H205.846V57.3202H213.122V41.5605H219.657C223.269 41.5605 226.222 40.8498 228.517 39.4077C230.822 37.976 232.489 36.1322 233.529 33.8661C234.568 31.6 235.083 29.1691 235.083 26.5528C235.083 21.9897 233.632 18.4155 230.73 15.8403C227.828 13.2652 223.804 11.9777 218.658 11.9777M165.465 40.4378L171.311 26.1202L176.971 40.4378H165.465ZM183.567 57.3099H191.902L171.887 10.1236H171.455L151.419 57.3202H158.571L162.924 46.6695H179.409L183.577 57.3202L183.567 57.3099ZM115.524 18.9717H122.244C124.189 18.9717 125.764 19.394 126.968 20.2489C128.172 21.1039 129.026 22.1133 129.52 23.2979C130.014 24.4824 130.271 25.6567 130.271 26.8206C130.271 28.8189 129.612 30.6112 128.305 32.2077C126.999 33.8043 124.899 34.6077 121.987 34.6077H115.514V18.9717H115.524ZM141.406 57.3305L130.394 39.83C132.926 38.5425 134.778 36.709 135.962 34.3193C137.145 31.9296 137.732 29.3442 137.732 26.5631C137.732 22 136.209 18.4258 133.163 15.8506C130.117 13.2755 126.062 11.988 120.999 11.988H108.249V57.3202H115.524V41.5605H122.8L132.998 57.3202H141.395L141.406 57.3305ZM61.9608 50.3571V18.9099H69.5554C72.0458 18.9099 74.4641 19.4661 76.8001 20.5888C79.1464 21.7116 81.0708 23.4627 82.5835 25.8524C84.0962 28.2421 84.8578 31.2189 84.8578 34.7931C84.8578 38.0687 84.1683 40.891 82.7687 43.2292C81.3795 45.5777 79.4551 47.3494 76.9853 48.5545C74.5155 49.7597 71.665 50.3571 68.4337 50.3571H61.9608ZM54.6852 57.3305H69.7406C73.8055 57.3305 77.5616 56.424 80.9987 54.6215C84.4358 52.8189 87.1835 50.2438 89.2416 46.8961C91.2998 43.5588 92.3186 39.6858 92.3186 35.2876C92.3186 31.3013 91.4644 27.5416 89.7665 24.0189C88.0685 20.4961 85.362 17.6017 81.647 15.3665C77.9321 13.121 73.2395 12.0086 67.559 12.0086H54.6852V57.3202V57.3305ZM16.0536 51.5416C13.6456 51.5416 11.6286 50.8309 9.99235 49.4197C8.35611 48.0086 7.53285 46.206 7.53285 44.0017C7.53285 41.9313 8.28408 40.1185 9.80711 38.5837C11.3199 37.0489 13.1516 36.1734 15.3127 35.9674L23.8952 47.4833C22.2384 50.182 19.6245 51.5313 16.0536 51.5313M39.6915 57.3202L31.1708 45.9897L37.3349 30.3021H30.6768L26.8795 40.2627L16.3623 26.2541C16.3623 26.2541 15.9713 25.6464 15.3024 24.5442C14.6438 23.4421 14.3042 22.2884 14.3042 21.0936C14.3042 19.6824 14.757 18.4979 15.6729 17.5399C16.5887 16.582 17.8236 16.1082 19.4084 16.1082C20.4889 16.1082 21.6209 16.4584 22.7941 17.1691C23.9775 17.8798 25.2742 18.8893 26.684 20.218L30.2961 15.418C28.9274 13.8421 27.1985 12.5442 25.0992 11.5245C23.0102 10.5047 20.7153 10 18.225 10C15.7346 10 13.8205 10.4944 12.102 11.4936C10.3834 12.4927 9.07646 13.8009 8.18117 15.418C7.28587 17.0352 6.84337 18.7142 6.84337 20.4652C6.84337 22.9991 7.98565 25.9451 10.2599 29.303L11.5051 30.982C8.23262 31.9399 5.49527 33.6189 3.29305 36.0292C1.09082 38.4395 0 41.2206 0 44.3725C0 46.9476 0.65861 49.2755 1.98612 51.3459C3.31363 53.4163 5.11452 55.0541 7.39907 56.2283C9.68363 57.4129 12.2254 58 15.0554 58C17.8854 58 20.3552 57.5056 22.4854 56.5064C24.6155 55.5073 26.3547 54.1785 27.6822 52.5202L31.2943 57.3099H39.6915V57.3202Z" fill="white"/>
</svg>
