<svg width="364" height="61" viewBox="0 0 364 61" fill="none" xmlns="http://www.w3.org/2000/svg">
<path fill-rule="evenodd" clip-rule="evenodd" d="M168.039 6.09904C168.039 3.21626 165.915 1.03817 163.02 1.03817C160.254 1.03817 157.873 3.21626 157.873 6.09904C157.873 8.78963 160.254 11.0318 163.02 11.0318C165.915 11.0318 168.039 8.78963 168.039 6.09904ZM158.966 16.0287V46.1377H167.137V16.0287H158.966ZM207.608 1.67841V46.0091V46.0731H213.334V41.781C215.199 44.92 218.481 46.8419 222.92 46.8419C231.734 46.8419 236.689 39.9232 236.689 31.1468C236.689 22.5625 232.121 15.7079 223.113 15.7079C218.223 15.7079 214.749 18.0782 213.334 20.7047V1.67841H207.608ZM213.268 31.1464C213.268 24.7402 216.936 20.7684 222.083 20.7684C227.487 20.7684 230.833 24.8043 230.833 31.1464C230.833 37.4885 227.423 41.6525 222.083 41.6525C216.871 41.6525 213.268 37.5526 213.268 31.1464ZM108.655 27.6883L101.191 28.8414C96.173 29.6101 92.184 32.4929 92.184 37.9381C92.184 42.5506 96.173 46.9708 102.607 46.9708C106.789 46.9708 109.555 45.1771 111.164 42.999L114.831 46.138H118.949V41.3334V26.5352C118.949 20.4493 115.346 15.0681 105.759 15.0681C97.5885 15.0681 93.2778 20.2571 92.7631 24.9977L100.033 26.5352C100.291 23.9086 102.221 21.6665 105.824 21.6665C109.234 21.6665 110.907 23.4602 110.907 25.5742C110.907 26.5992 110.392 27.432 108.655 27.6883ZM110.907 32.6211V33.9664C110.907 39.2835 107.754 40.9491 104.28 40.885C101.642 40.885 100.355 39.2194 100.355 37.4257C100.355 35.0554 101.964 33.9664 104.087 33.6461L110.907 32.6211ZM32.3487 30.9542C32.3487 40.1791 25.5931 46.9696 16.4571 46.9696C7.32098 46.9696 0.56543 40.1791 0.56543 30.9542C0.56543 21.6653 7.32098 14.9388 16.4571 14.9388C25.5931 14.9388 32.3487 21.6012 32.3487 30.9542ZM24.1133 30.9544C24.1133 25.317 20.446 22.3701 16.3926 22.3701C12.3393 22.3701 8.67199 25.317 8.67199 30.9544C8.67199 36.5918 12.3393 39.5387 16.3926 39.5387C20.446 39.5387 24.1133 36.5278 24.1133 30.9544ZM37.2376 15.9646H40.3902L45.2799 20.1286C47.2101 16.413 51.199 15.7084 53.7082 15.7084C54.2869 15.7084 54.7366 15.7512 55.2682 15.8018L55.2682 15.8018C55.3868 15.8131 55.5094 15.8248 55.6384 15.8365V24.0364C54.8663 23.8442 53.9656 23.7801 53.1935 23.7801C49.0115 23.7801 45.4086 25.8301 45.4086 32.3003V46.0736H37.2376V15.9646ZM125.125 46.1376H133.296H133.36V28.7769C133.36 25.2535 135.419 22.4988 139.022 22.4988C142.947 22.4988 144.619 25.0613 144.619 28.5206V46.0735H152.79V27.1113C152.79 20.5129 149.445 15.1958 141.853 15.1958C138.572 15.1958 135.033 16.6052 133.103 19.7442L128.663 16.0286H125.125V46.1376ZM188.305 39.539C184.123 39.539 180.585 36.4641 180.585 31.0188C180.585 25.5736 184.123 22.5627 188.305 22.6268C192.294 22.6268 194.289 25.1892 194.996 27.6876L202.267 25.1892C200.98 20.0643 196.283 15.0034 188.048 15.0034C179.169 15.0034 172.349 21.7299 172.349 31.0188C172.349 40.3078 179.362 47.0342 188.305 47.0342C196.283 47.0342 201.173 41.8452 202.46 36.8484L195.254 34.4782C194.61 36.7844 192.487 39.539 188.305 39.539ZM257.534 28.1359L249.556 29.289C244.344 30.0578 240.549 32.8765 240.549 38.2577C240.549 42.9342 244.409 47.0982 250.457 47.0982C254.703 47.0982 257.405 45.3044 259.014 43.5107L262.166 46.2013H265.512C265.512 46.2013 265.576 43.9592 265.576 41.3326V26.5984C265.576 20.897 262.166 15.8361 253.288 15.8361C246.854 15.8361 241.9 19.7438 241.192 25.3813L246.725 26.6625C247.111 23.2032 249.299 20.7048 253.416 20.7048C257.856 20.7048 259.786 23.0751 259.786 25.9578C259.786 26.9828 259.335 27.8797 257.534 28.1359ZM259.786 32.1718V33.5171C259.786 39.9233 255.99 42.1654 251.229 42.2295C248.269 42.2295 246.403 40.1155 246.403 37.9374C246.403 35.3108 248.269 33.9655 250.714 33.5171L259.786 32.1718ZM282.175 42.1023C277.993 42.1023 275.741 39.732 275.291 36.593L270.143 38.4508C270.594 41.9101 274.068 47.035 282.175 47.035C289.509 47.035 292.984 42.1023 292.984 37.9383C292.984 33.518 290.217 30.3149 284.813 29.1618L279.987 28.1368C277.671 27.6884 276.577 26.5353 276.577 24.6135C276.577 22.6275 278.507 20.7057 281.467 20.7057C286.228 20.7057 287.258 24.0369 287.644 25.5744L292.726 23.6525C292.019 21.0901 289.574 15.7729 281.467 15.7729C275.741 15.7729 270.98 20.001 270.98 25.0619C270.98 29.2259 273.682 32.3649 278.379 33.3258L283.397 34.4149C285.842 34.9274 287.193 36.2727 287.193 38.1945C287.193 40.3086 285.456 42.1023 282.175 42.1023ZM305.466 5.52222C305.466 3.15194 303.664 1.35822 301.284 1.35822C299.032 1.35822 297.166 3.08788 297.166 5.52222C297.166 7.76438 299.032 9.62216 301.284 9.62216C303.664 9.62216 305.466 7.76438 305.466 5.52222ZM298.452 16.6688V46.1371H304.178V16.6688H298.452ZM323.48 41.7168C318.655 41.7168 314.409 38.0012 314.409 31.3388C314.409 24.4842 318.655 21.089 323.48 20.8968C328.499 20.8968 330.622 24.292 331.394 27.1748L336.605 24.9967C335.254 20.5124 331.33 15.6437 323.416 15.6437C314.988 15.6437 308.554 22.178 308.554 31.2748C308.554 40.2434 314.859 46.9699 323.48 46.9699C331.201 46.9699 335.319 42.0371 336.798 37.809L331.716 35.6309C331.072 38.0012 329.013 41.7168 323.48 41.7168ZM345.163 36.593C345.614 39.732 347.865 42.1023 352.047 42.1023C355.329 42.1023 357.066 40.3086 357.066 38.1945C357.066 36.2727 355.715 34.9274 353.27 34.4149L348.251 33.3259C343.555 32.3649 340.853 29.2259 340.853 25.0619C340.853 20.001 345.614 15.773 351.34 15.773C359.446 15.773 361.891 21.0901 362.599 23.6526L357.516 25.5744C357.13 24.0369 356.101 20.7057 351.34 20.7057C348.38 20.7057 346.45 22.6276 346.45 24.6135C346.45 26.5353 347.544 27.6884 349.86 28.1369L354.685 29.1619C360.09 30.315 362.856 33.518 362.856 37.9383C362.856 42.1023 359.382 47.0351 352.047 47.0351C343.941 47.0351 340.467 41.9101 340.016 38.4508L345.163 36.593ZM88.9667 19.8084L89.2884 19.8725V13.2741H89.031C85.8784 13.5304 83.2405 14.8757 81.5034 17.1178C79.3159 15.7085 76.8067 14.9397 74.0401 14.9397H72.8177C64.9684 14.8116 58.9206 20.7694 58.7919 28.0724V29.2255C58.7919 33.5817 60.7864 37.4254 63.939 39.9238L59.5639 47.4831C57.9555 50.4299 58.9849 53.4408 60.5934 54.658C62.3948 56.0033 64.6467 56.0033 66.7055 55.2986C69.0217 54.5298 79.8949 50.9424 80.86 60.936L88.9667 59.2063C87.7442 50.1096 78.8012 44.2159 67.5419 48.508C66.1265 49.0205 65.8691 48.3159 66.1908 47.7393L69.2791 42.3581C70.2441 42.5503 71.2736 42.6784 72.303 42.6784H73.5254C81.3747 42.8066 87.4225 36.8488 87.5512 29.5458V28.3927C87.5512 25.3177 86.5862 22.6271 84.9133 20.385C85.8784 19.9366 86.9722 19.6803 88.2589 19.6803C88.3599 19.7004 88.4482 19.7205 88.5278 19.7386C88.7018 19.7783 88.8342 19.8084 88.9667 19.8084ZM79.4445 29.2252C79.3802 32.8126 77.3214 35.6954 73.461 35.6313H72.882C69.0217 35.5673 67.0272 32.6204 67.0915 29.033V28.4564C67.1559 24.869 69.2147 21.9862 73.075 22.0503H73.6541C77.5144 22.1143 79.5089 25.0612 79.4445 28.6486V29.2252Z" fill="white"/>
</svg>
