<svg width="654" height="68" viewBox="0 0 654 68" fill="none" xmlns="http://www.w3.org/2000/svg">
<path d="M92.0963 7.4347C92.0963 2.99201 95.0534 0 99.6739 0C104.294 0 107.251 2.99201 107.251 7.4347V60.1803C107.251 64.623 104.294 67.615 99.6739 67.615C95.0534 67.615 92.0963 64.623 92.0963 60.1803V7.4347Z" fill="#626262"/>
<path d="M118.92 8.70404C118.92 2.53868 121.904 0 128.232 0C131.305 0 134.018 1.17867 135.645 3.89868L161.579 45.8662H161.76V7.1627C161.76 2.35734 164.472 0 168.89 0C173.32 0 176.032 2.35734 176.032 7.1627V58.3669C176.032 64.2603 173.501 67.615 167.263 67.615C162.562 67.615 161.025 66.6176 159.127 63.6256L133.373 22.8368H133.193V60.4523C133.193 65.2576 130.481 67.615 126.051 67.615C121.621 67.615 118.909 65.2576 118.909 60.4523V8.70404H118.92Z" fill="#626262"/>
<path d="M198.938 13.6781H188.376C184.129 13.6781 180.695 11.5021 180.695 7.42195C180.695 3.34183 184.129 1.16577 188.376 1.16577H224.308C228.556 1.16577 231.989 3.34183 231.989 7.42195C231.989 11.5021 228.556 13.6781 224.308 13.6781H213.747V60.1801C213.747 64.6229 210.855 67.615 206.337 67.615C201.818 67.615 198.927 64.6229 198.927 60.1801V13.6781H198.938Z" fill="#626262"/>
<path d="M237.818 9.87174C237.818 3.25158 241.223 1.16577 246.41 1.16577H278.626C282.927 1.16577 286.064 2.43539 286.064 7.15112C286.064 11.8669 282.939 13.1365 278.626 13.1365H252.504V27.2723H275.131C278.984 27.2723 282.031 28.3606 282.031 32.9856C282.031 37.6107 278.984 38.6989 275.131 38.6989H252.504V54.4785H279.343C283.644 54.4785 286.781 55.7481 286.781 60.4638C286.781 65.1796 283.644 66.4492 279.343 66.4492H246.41C241.212 66.4492 237.818 64.3634 237.818 57.7432V9.87174Z" fill="#626262"/>
<path d="M292.621 9.87001C292.621 3.25116 296.072 1.16577 301.339 1.16577H323.816C341.524 1.16577 346.235 10.8674 346.235 19.2883C346.235 26.3605 342.058 33.342 334.986 34.9741V35.1554C342.614 36.2434 343.976 41.7742 343.976 48.3931C343.976 55.9186 345.974 58.718 345.974 61.8121C345.974 65.2576 342.432 67.615 338.982 67.615C330.808 67.615 330.173 59.7267 330.173 57.0973C330.173 45.673 328.084 41.0602 319.911 41.0602H307.503V60.1801C307.503 64.6229 304.597 67.615 300.056 67.615C295.516 67.615 292.61 64.6229 292.61 60.1801V9.87001H292.621ZM307.503 30.1686H320.081C325.711 30.1686 331.342 28.7179 331.342 21.3737C331.342 14.3921 327.074 12.5788 320.535 12.5788H307.503V30.1686Z" fill="#626262"/>
<path d="M531.594 9.87001C531.594 3.25116 535.045 1.16577 540.314 1.16577H562.795C580.496 1.16577 585.219 10.8674 585.219 19.2883C585.219 26.3605 581.041 33.342 573.967 34.9741V35.1554C581.597 36.2434 582.96 41.7742 582.96 48.3931C582.96 55.9186 584.958 58.718 584.958 61.8121C584.958 65.2576 581.416 67.615 577.964 67.615C569.789 67.615 569.153 59.7267 569.153 57.0973C569.153 45.673 567.064 41.0602 558.889 41.0602H546.49V60.1801C546.49 64.6229 543.584 67.615 539.042 67.615C534.5 67.615 531.594 64.6229 531.594 60.1801V9.87001ZM546.49 30.1686H559.071C564.702 30.1686 570.334 28.7179 570.334 21.3737C570.334 14.3921 566.065 12.5788 559.525 12.5788H546.49V30.1686Z" fill="black"/>
<path d="M389.163 28.6943C402.338 31.7443 405.69 39.728 405.69 47.2632C405.69 58.9248 397.075 67.615 379.68 67.615C361.406 67.615 353.23 58.2857 353.23 51.2887C353.23 47.7005 355.779 45.1888 359.296 45.1888C367.12 45.1888 365.098 56.8504 379.68 56.8504C387.152 56.8504 391.284 52.6343 391.284 48.3284C391.284 45.727 390.053 42.8565 385.13 41.6006L368.878 37.3845C355.79 33.9757 353.417 26.6199 353.417 19.7126C353.395 5.38229 366.405 0 378.614 0C389.866 0 403.13 6.45874 403.13 15.0592C403.13 18.7371 400.053 20.89 396.536 20.89C389.855 20.89 391.086 11.2916 377.636 11.2916C370.955 11.2916 367.262 14.4313 367.262 18.9165C367.262 23.4017 372.537 24.837 377.097 25.9135L389.163 28.6943Z" fill="black"/>
<path d="M412.685 9.87299C412.685 3.25187 416.102 1.16577 421.318 1.16577H441.597C454.008 1.16577 463.979 7.33338 463.979 21.8341C463.979 33.7158 455.795 42.5024 441.507 42.5024H427.433V60.1776C427.433 64.6219 424.555 67.615 420.059 67.615C415.562 67.615 412.685 64.6219 412.685 60.1776V9.87299V9.87299ZM427.422 31.0855H438.888C444.823 31.0855 449.219 27.4575 449.219 21.8341C449.219 15.3037 444.632 12.5827 437.348 12.5827H427.411V31.0855H427.422Z" fill="black"/>
<path d="M496.037 0C517.564 0 524.599 14.0836 524.599 33.0001C524.599 51.199 518.476 67.615 496.037 67.615C472.516 67.615 467.476 52.5558 467.476 33.0001C467.476 14.0836 474.522 0 496.037 0ZM496.037 55.7739C509.617 55.7739 509.64 45.3794 509.64 33.0001C509.64 20.6209 508.26 11.841 496.037 11.841C483.815 11.841 482.435 20.6321 482.435 33.0001C482.435 45.3794 481.99 55.7739 496.037 55.7739Z" fill="black"/>
<path d="M604.628 13.6781H594.066C589.819 13.6781 586.385 11.5021 586.385 7.42195C586.385 3.34183 589.819 1.16577 594.066 1.16577H629.998C634.245 1.16577 637.679 3.34183 637.679 7.42195C637.679 11.5021 634.245 13.6781 629.998 13.6781H619.436V60.1801C619.436 64.6229 616.545 67.615 612.026 67.615C607.508 67.615 604.616 64.6229 604.616 60.1801V13.6781H604.628Z" fill="black"/>
<path d="M650.503 10.492L649.229 7.79322C649.986 7.60261 650.436 6.99062 650.436 6.29838C650.436 5.80679 650.177 5.32523 649.746 5.02426C649.306 4.72328 648.798 4.66309 648.272 4.66309H645.84V10.492H646.653V7.96378H648.3L649.507 10.4819H650.503V10.492ZM646.653 7.37186V5.29513H648.272C648.607 5.29513 648.884 5.30517 649.172 5.48575C649.488 5.67637 649.622 5.94724 649.622 6.28835C649.622 6.56926 649.516 6.85017 649.287 7.05082C648.971 7.35179 648.607 7.37186 648.176 7.37186H646.653Z" fill="black"/>
<path d="M648.171 12.8235C644.954 12.8235 642.342 10.4726 642.342 7.57753C642.342 4.68249 644.954 2.33154 648.171 2.33154C651.388 2.33154 654 4.68249 654 7.57753C654 10.4726 651.388 12.8235 648.171 12.8235ZM648.171 3.25549C645.525 3.25549 643.357 5.19579 643.357 7.5878C643.357 9.96954 645.513 11.9098 648.171 11.9098C650.817 11.9098 652.973 9.96954 652.973 7.5878C652.985 5.19579 650.829 3.25549 648.171 3.25549Z" fill="black"/>
<path d="M0 15.1551C0 7.42786 6.52301 1.16577 14.5722 1.16577C22.6214 1.16577 29.1444 7.42786 29.1444 15.1551C29.1444 22.8823 22.6214 29.1444 14.5722 29.1444C6.52301 29.1444 0 22.8823 0 15.1551Z" fill="#626262"/>
<path d="M14.1194 66.4492C12.1181 66.4492 10.4919 64.7137 10.4919 62.5778V39.0715C10.4919 36.9356 12.0612 35.2001 14.1194 35.2001C37.1807 35.2001 39.0115 4.66309 72.1479 4.66309C74.1493 4.66309 75.7754 6.39853 75.7754 8.53445V31.796C75.7754 33.9319 74.1493 35.6674 72.1479 35.6674C49.5528 35.6674 48.1428 66.4492 14.1194 66.4492Z" fill="black"/>
</svg>
