<svg width="476" height="94" viewBox="0 0 476 94" fill="none" xmlns="http://www.w3.org/2000/svg">
<path d="M4.16945 75V19.9318H24.6234L31.1529 40.2284C33.1458 46.4694 34.7192 51.6878 35.873 55.8835H36.5023C37.6562 51.6878 39.2295 46.4694 41.2225 40.2284L47.752 19.9318H68.2059V75H54.5962V50.9273C54.5962 43.3751 54.6486 37.4487 54.7535 33.1482L54.2028 33.0695C53.3113 36.3736 52.2099 40.1235 50.8987 44.3191C50.4267 45.7876 49.7712 47.9904 48.932 50.9273L41.6945 75H30.6809L23.4433 50.9273C22.6042 47.9904 21.9486 45.7876 21.4766 44.3191C20.1655 40.1235 19.0641 36.3736 18.1725 33.0695L17.6218 33.1482C17.7267 37.4487 17.7792 43.3751 17.7792 50.9273V75H4.16945ZM71.5204 65.0091C71.5204 61.3903 72.884 58.532 75.6112 56.4341C78.3908 54.2839 82.5603 53.2349 88.1196 53.2874C93.1019 53.3398 96.5109 52.8941 98.3465 51.95C100.182 51.006 101.1 49.6424 101.1 47.8592C101.1 46.3908 100.497 45.1583 99.2905 44.1618C98.0843 43.1129 96.2225 42.5884 93.7051 42.5884C91.0303 42.5884 88.9063 43.2964 87.3329 44.7125C85.8119 46.1285 84.9466 48.1215 84.7368 50.6913H72.0711C72.4382 45.6041 74.405 41.4084 77.9713 38.1043C81.5376 34.8002 86.7297 33.1482 93.5477 33.1482C100.208 33.1482 105.217 34.6691 108.573 37.711C111.982 40.7004 113.687 44.5289 113.687 49.1966V75H101.493L101.1 62.649H100.707C100.182 66.8971 98.5563 70.2274 95.8291 72.6399C93.1019 75.0524 89.5618 76.2587 85.2088 76.2587C81.1705 76.2587 77.8664 75.3147 75.2965 73.4266C72.7791 71.5386 71.5204 68.7327 71.5204 65.0091ZM84.4221 64.065C84.4221 65.4286 84.9204 66.4775 85.9168 67.2118C86.9133 67.946 88.2769 68.3131 90.0076 68.3131C91.8957 68.3131 93.6788 67.8411 95.3571 66.8971C97.0878 65.9531 98.4776 64.6944 99.5265 63.121C100.575 61.4952 101.1 59.7645 101.1 57.9289V51.6353H100.707C100.444 53.4185 99.9199 54.8608 99.1332 55.9621C98.399 57.0635 97.2189 57.9551 95.5931 58.6369C94.0197 59.2662 91.817 59.6858 88.9849 59.8956C87.5689 60.0005 86.4413 60.42 85.6022 61.1543C84.8155 61.8361 84.4221 62.8063 84.4221 64.065ZM149.306 19.9318H162.129V75H149.699L149.306 63.9077H148.834C147.575 68.1034 145.609 71.2239 142.934 73.2693C140.312 75.2622 137.296 76.2587 133.887 76.2587C130.635 76.2587 127.725 75.3933 125.155 73.6626C122.585 71.9319 120.566 69.467 119.097 66.2678C117.681 63.0161 116.973 59.2138 116.973 54.8608C116.973 50.4553 117.681 46.6268 119.097 43.3751C120.566 40.1235 122.585 37.6323 125.155 35.9016C127.725 34.1709 130.635 33.3055 133.887 33.3055C137.296 33.3055 140.312 34.3282 142.934 36.3736C145.609 38.3665 147.575 41.4871 148.834 45.7352H149.306V19.9318ZM139.63 67.7625C142.567 67.7625 144.901 66.8184 146.631 64.9304C148.415 62.9899 149.306 60.4725 149.306 57.3782V52.2647C149.306 49.1704 148.415 46.653 146.631 44.7125C144.901 42.772 142.567 41.8017 139.63 41.8017C136.64 41.8017 134.254 42.9556 132.471 45.2632C130.74 47.5183 129.875 50.7175 129.875 54.8608C129.875 59.004 130.74 62.2032 132.471 64.4584C134.254 66.6611 136.64 67.7625 139.63 67.7625ZM167.449 75V19.9318H179.957V37.475C179.957 42.6147 179.853 47.2037 179.643 51.242L180.036 51.478C181.347 49.5375 182.606 47.8855 183.812 46.5219C185.071 45.1583 186.854 43.2965 189.162 40.9364L190.342 39.835L195.849 34.4069H210.402L202.378 42.4311C200.857 43.952 197.737 46.8365 193.016 51.0847L193.095 51.478L194.118 51.5567C196.688 51.6091 198.812 52.3434 200.49 53.7594C202.168 55.1754 203.558 57.2733 204.659 60.0529L210.481 75H197.343L194.197 66.5038C193.462 64.4059 192.492 62.8063 191.286 61.705C190.132 60.5512 188.637 59.9742 186.802 59.9742H184.678L179.957 64.6944V75H167.449ZM212.432 75V19.9318H225.333V75H212.432ZM261.435 34.4069H274.337V75H261.828L261.435 62.4917H260.963C260.596 65.3237 259.678 67.7887 258.21 69.8865C256.741 71.9319 254.932 73.5053 252.781 74.6067C250.631 75.708 248.35 76.2587 245.937 76.2587C243.263 76.2587 240.771 75.6556 238.464 74.4493C236.156 73.1906 234.294 71.3812 232.878 69.0212C231.515 66.6087 230.833 63.7241 230.833 60.3676V34.4069H243.656V56.5128C243.656 63.1734 246.567 66.5038 252.388 66.5038C255.168 66.5038 257.37 65.5597 258.996 63.6717C260.622 61.7836 261.435 59.1351 261.435 55.7261V34.4069ZM307.978 33.1482C311.229 33.1482 314.114 34.0397 316.631 35.8229C319.201 37.5536 321.194 40.0448 322.61 43.2964C324.078 46.5481 324.813 50.3504 324.813 54.7034C324.813 59.0564 324.078 62.8588 322.61 66.1104C321.194 69.3621 319.201 71.8532 316.631 73.584C314.114 75.3147 311.229 76.18 307.978 76.18C304.569 76.18 301.527 75.1836 298.852 73.1906C296.177 71.1452 294.21 68.0247 292.952 63.829H292.48L292.086 75H279.657V19.9318H292.48V45.6565H292.952C294.21 41.4084 296.177 38.2616 298.852 36.2163C301.527 34.1709 304.569 33.1482 307.978 33.1482ZM302.156 67.6838C305.145 67.6838 307.505 66.5562 309.236 64.301C311.019 62.0459 311.911 58.8467 311.911 54.7034C311.911 50.5602 311.019 47.361 309.236 45.1058C307.505 42.7982 305.145 41.6444 302.156 41.6444C299.219 41.6444 296.859 42.6147 295.076 44.5552C293.345 46.4957 292.48 49.0393 292.48 52.186V57.2995C292.48 60.3414 293.345 62.8325 295.076 64.773C296.859 66.7135 299.219 67.6838 302.156 67.6838ZM356.801 33.1482C360.053 33.1482 362.938 34.0397 365.455 35.8229C368.025 37.5536 370.018 40.0448 371.434 43.2964C372.902 46.5481 373.636 50.3504 373.636 54.7034C373.636 59.0564 372.902 62.8588 371.434 66.1104C370.018 69.3621 368.025 71.8532 365.455 73.584C362.938 75.3147 360.053 76.18 356.801 76.18C353.392 76.18 350.351 75.1836 347.676 73.1906C345.001 71.1452 343.034 68.0247 341.776 63.829H341.304L340.91 75H328.481V19.9318H341.304V45.6565H341.776C343.034 41.4084 345.001 38.2616 347.676 36.2163C350.351 34.1709 353.392 33.1482 356.801 33.1482ZM350.98 67.6838C353.969 67.6838 356.329 66.5562 358.06 64.301C359.843 62.0459 360.735 58.8467 360.735 54.7034C360.735 50.5602 359.843 47.361 358.06 45.1058C356.329 42.7982 353.969 41.6444 350.98 41.6444C348.043 41.6444 345.683 42.6147 343.9 44.5552C342.169 46.4957 341.304 49.0393 341.304 52.186V57.2995C341.304 60.3414 342.169 62.8325 343.9 64.773C345.683 66.7135 348.043 67.6838 350.98 67.6838ZM418.134 57.3782H387.767C387.872 60.3151 388.843 62.6228 390.678 64.301C392.566 65.9793 394.979 66.8184 397.916 66.8184C400.171 66.8184 402.111 66.2678 403.737 65.1664C405.363 64.065 406.412 62.649 406.884 60.9183H417.819C417.399 64.3273 416.141 67.1856 414.043 69.4932C411.945 71.8008 409.454 73.5053 406.569 74.6067C403.685 75.708 400.8 76.2587 397.916 76.2587C390.993 76.2587 385.538 74.3706 381.553 70.5945C377.619 66.8184 375.652 61.469 375.652 54.5461C375.652 50.298 376.518 46.5743 378.248 43.3751C380.032 40.1235 382.523 37.6061 385.722 35.8229C388.974 34.0397 392.75 33.1482 397.05 33.1482C401.403 33.1482 405.153 34.0922 408.3 35.9802C411.499 37.8159 413.938 40.3333 415.616 43.5325C417.294 46.6792 418.134 50.1931 418.134 54.0741V57.3782ZM396.736 42.5884C394.271 42.5884 392.199 43.2964 390.521 44.7125C388.895 46.1285 387.977 48.1739 387.767 50.8487H405.625C405.415 48.2264 404.498 46.2072 402.872 44.7912C401.246 43.3227 399.201 42.5884 396.736 42.5884ZM450.533 33.1482C453.208 33.1482 455.699 33.7775 458.006 35.0362C460.314 36.2425 462.15 38.0519 463.513 40.4644C464.929 42.8244 465.637 45.6827 465.637 49.0393V75H452.814V52.8941C452.814 49.6949 452.054 47.2299 450.533 45.4992C449.012 43.7685 446.862 42.9031 444.082 42.9031C441.197 42.9031 438.942 43.8471 437.316 45.7352C435.743 47.6232 434.956 50.2718 434.956 53.6807V75H422.133V34.4069H434.642L434.956 46.9152H435.428C435.848 44.0831 436.792 41.6444 438.261 39.599C439.729 37.5012 441.538 35.9016 443.689 34.8002C445.839 33.6989 448.12 33.1482 450.533 33.1482Z" fill="#121212"/>
</svg>
