<svg width="721" height="131" viewBox="0 0 721 131" fill="none" xmlns="http://www.w3.org/2000/svg">
<path d="M125.096 39.4347C125.096 34.992 128.053 32 132.674 32C137.294 32 140.251 34.992 140.251 39.4347V92.1803C140.251 96.623 137.294 99.615 132.674 99.615C128.053 99.615 125.096 96.623 125.096 92.1803V39.4347Z" fill="#626262"/>
<path d="M151.92 40.704C151.92 34.5387 154.904 32 161.232 32C164.305 32 167.018 33.1787 168.645 35.8987L194.579 77.8662H194.76V39.1627C194.76 34.3573 197.472 32 201.89 32C206.32 32 209.032 34.3573 209.032 39.1627V90.3669C209.032 96.2603 206.501 99.615 200.263 99.615C195.562 99.615 194.025 98.6176 192.127 95.6256L166.373 54.8368H166.193V92.4523C166.193 97.2576 163.481 99.615 159.051 99.615C154.621 99.615 151.909 97.2576 151.909 92.4523V40.704H151.92Z" fill="#626262"/>
<path d="M231.938 45.6781H221.376C217.129 45.6781 213.695 43.5021 213.695 39.4219C213.695 35.3418 217.129 33.1658 221.376 33.1658H257.308C261.556 33.1658 264.989 35.3418 264.989 39.4219C264.989 43.5021 261.556 45.6781 257.308 45.6781H246.747V92.1801C246.747 96.6229 243.855 99.615 239.337 99.615C234.818 99.615 231.927 96.6229 231.927 92.1801V45.6781H231.938Z" fill="#626262"/>
<path d="M270.818 41.8717C270.818 35.2516 274.223 33.1658 279.41 33.1658H311.626C315.927 33.1658 319.064 34.4354 319.064 39.1511C319.064 43.8669 315.939 45.1365 311.626 45.1365H285.504V59.2723H308.131C311.984 59.2723 315.031 60.3606 315.031 64.9856C315.031 69.6107 311.984 70.6989 308.131 70.6989H285.504V86.4785H312.343C316.644 86.4785 319.781 87.7481 319.781 92.4638C319.781 97.1796 316.644 98.4492 312.343 98.4492H279.41C274.212 98.4492 270.818 96.3634 270.818 89.7432V41.8717Z" fill="#626262"/>
<path d="M325.621 41.87C325.621 35.2512 329.072 33.1658 334.339 33.1658H356.816C374.524 33.1658 379.235 42.8674 379.235 51.2883C379.235 58.3605 375.058 65.342 367.986 66.9741V67.1554C375.614 68.2434 376.976 73.7742 376.976 80.3931C376.976 87.9186 378.974 90.718 378.974 93.8121C378.974 97.2576 375.432 99.615 371.982 99.615C363.808 99.615 363.173 91.7267 363.173 89.0973C363.173 77.673 361.084 73.0602 352.911 73.0602H340.503V92.1801C340.503 96.6229 337.597 99.615 333.056 99.615C328.516 99.615 325.61 96.6229 325.61 92.1801V41.87H325.621ZM340.503 62.1686H353.081C358.711 62.1686 364.342 60.7179 364.342 53.3737C364.342 46.3921 360.074 44.5788 353.535 44.5788H340.503V62.1686Z" fill="#626262"/>
<path d="M564.594 41.87C564.594 35.2512 568.045 33.1658 573.314 33.1658H595.795C613.496 33.1658 618.219 42.8674 618.219 51.2883C618.219 58.3605 614.041 65.342 606.967 66.9741V67.1554C614.597 68.2434 615.96 73.7742 615.96 80.3931C615.96 87.9186 617.958 90.718 617.958 93.8121C617.958 97.2576 614.416 99.615 610.964 99.615C602.789 99.615 602.153 91.7267 602.153 89.0973C602.153 77.673 600.064 73.0602 591.889 73.0602H579.49V92.1801C579.49 96.6229 576.584 99.615 572.042 99.615C567.5 99.615 564.594 96.6229 564.594 92.1801V41.87ZM579.49 62.1686H592.071C597.702 62.1686 603.334 60.7179 603.334 53.3737C603.334 46.3921 599.065 44.5788 592.525 44.5788H579.49V62.1686Z" fill="black"/>
<path d="M422.163 60.6943C435.338 63.7443 438.69 71.728 438.69 79.2632C438.69 90.9248 430.075 99.615 412.68 99.615C394.406 99.615 386.23 90.2857 386.23 83.2887C386.23 79.7005 388.779 77.1888 392.296 77.1888C400.12 77.1888 398.098 88.8504 412.68 88.8504C420.152 88.8504 424.284 84.6343 424.284 80.3284C424.284 77.727 423.053 74.8565 418.13 73.6006L401.878 69.3845C388.79 65.9757 386.417 58.6199 386.417 51.7126C386.395 37.3823 399.405 32 411.614 32C422.866 32 436.13 38.4587 436.13 47.0592C436.13 50.7371 433.053 52.89 429.536 52.89C422.855 52.89 424.086 43.2916 410.636 43.2916C403.955 43.2916 400.262 46.4313 400.262 50.9165C400.262 55.4017 405.537 56.837 410.097 57.9135L422.163 60.6943Z" fill="black"/>
<path d="M445.685 41.873C445.685 35.2519 449.102 33.1658 454.318 33.1658H474.597C487.008 33.1658 496.979 39.3334 496.979 53.8341C496.979 65.7158 488.795 74.5024 474.507 74.5024H460.433V92.1776C460.433 96.6219 457.555 99.615 453.059 99.615C448.562 99.615 445.685 96.6219 445.685 92.1776V41.873V41.873ZM460.422 63.0855H471.888C477.823 63.0855 482.219 59.4575 482.219 53.8341C482.219 47.3037 477.632 44.5827 470.348 44.5827H460.411V63.0855H460.422Z" fill="black"/>
<path d="M529.037 32C550.564 32 557.599 46.0836 557.599 65.0001C557.599 83.199 551.476 99.615 529.037 99.615C505.516 99.615 500.476 84.5558 500.476 65.0001C500.476 46.0836 507.522 32 529.037 32ZM529.037 87.7739C542.617 87.7739 542.64 77.3794 542.64 65.0001C542.64 52.6209 541.26 43.841 529.037 43.841C516.815 43.841 515.435 52.6321 515.435 65.0001C515.435 77.3794 514.99 87.7739 529.037 87.7739Z" fill="black"/>
<path d="M637.628 45.6781H627.066C622.819 45.6781 619.385 43.5021 619.385 39.4219C619.385 35.3418 622.819 33.1658 627.066 33.1658H662.998C667.245 33.1658 670.679 35.3418 670.679 39.4219C670.679 43.5021 667.245 45.6781 662.998 45.6781H652.436V92.1801C652.436 96.6229 649.545 99.615 645.026 99.615C640.508 99.615 637.616 96.6229 637.616 92.1801V45.6781H637.628Z" fill="black"/>
<path d="M683.503 42.492L682.229 39.7932C682.986 39.6026 683.436 38.9906 683.436 38.2984C683.436 37.8068 683.177 37.3252 682.746 37.0243C682.306 36.7233 681.798 36.6631 681.272 36.6631H678.84V42.492H679.653V39.9638H681.3L682.507 42.4819H683.503V42.492ZM679.653 39.3719V37.2951H681.272C681.607 37.2951 681.884 37.3052 682.172 37.4857C682.488 37.6764 682.622 37.9472 682.622 38.2883C682.622 38.5693 682.516 38.8502 682.287 39.0508C681.971 39.3518 681.607 39.3719 681.176 39.3719H679.653Z" fill="black"/>
<path d="M681.171 44.8235C677.954 44.8235 675.342 42.4726 675.342 39.5775C675.342 36.6825 677.954 34.3315 681.171 34.3315C684.388 34.3315 687 36.6825 687 39.5775C687 42.4726 684.388 44.8235 681.171 44.8235ZM681.171 35.2555C678.525 35.2555 676.357 37.1958 676.357 39.5878C676.357 41.9695 678.513 43.9098 681.171 43.9098C683.817 43.9098 685.973 41.9695 685.973 39.5878C685.985 37.1958 683.829 35.2555 681.171 35.2555Z" fill="black"/>
<path d="M33 47.1551C33 39.4279 39.523 33.1658 47.5722 33.1658C55.6214 33.1658 62.1444 39.4279 62.1444 47.1551C62.1444 54.8823 55.6214 61.1444 47.5722 61.1444C39.523 61.1444 33 54.8823 33 47.1551Z" fill="#626262"/>
<path d="M47.1194 98.4492C45.1181 98.4492 43.4919 96.7137 43.4919 94.5778V71.0715C43.4919 68.9356 45.0612 67.2001 47.1194 67.2001C70.1807 67.2001 72.0115 36.6631 105.148 36.6631C107.149 36.6631 108.775 38.3985 108.775 40.5345V63.796C108.775 65.9319 107.149 67.6674 105.148 67.6674C82.5528 67.6674 81.1428 98.4492 47.1194 98.4492Z" fill="black"/>
</svg>
