<svg width="162" height="53" viewBox="0 0 162 53" fill="none" xmlns="http://www.w3.org/2000/svg">
<g clip-path="url(#clip0_2720_2016)">
<path d="M25.7069 25.9823C25.7069 24.582 25.3899 23.4855 24.7492 22.6863C24.1085 21.8871 23.2168 21.4908 22.0741 21.4908C20.9314 21.4908 20.0067 21.8937 19.2999 22.6995C18.5932 23.5053 18.2431 24.5423 18.2431 25.8171V27.6732C18.2431 28.7432 18.58 29.6217 19.2471 30.3152C19.9208 31.0088 20.7531 31.3588 21.757 31.3588C23.0054 31.3588 23.9764 30.8965 24.6633 29.9718C25.3502 29.047 25.7003 27.7194 25.7003 25.9889M29.1019 26.0483C29.1019 28.4856 28.5009 30.4275 27.2987 31.874C26.0966 33.3206 24.4717 34.0405 22.4176 34.0405C20.6606 34.0405 19.2933 33.3139 18.3224 31.8542H18.2629V40.3616H15V19.1592H18.2761V21.4842H18.3356C19.4915 19.7008 21.0965 18.8025 23.1573 18.8025C25.0134 18.8025 26.4665 19.4498 27.5233 20.7444C28.5801 22.039 29.1085 23.8026 29.1085 26.0351" fill="#4E4E4E"/>
<path d="M40.8789 22.3487C40.7072 22.2232 40.4298 22.111 40.0401 22.0119C39.6504 21.9062 39.3003 21.8534 38.9767 21.8534C38.0189 21.8534 37.2527 22.2629 36.6649 23.0753C36.077 23.8877 35.7864 24.9446 35.7864 26.2524V33.6831H32.5103V19.1585H35.7864V21.9789H35.8458C36.1695 21.0079 36.6517 20.2483 37.3056 19.7133C37.9595 19.1717 38.7125 18.9075 39.5579 18.9075C40.126 18.9075 40.5619 18.9735 40.8789 19.1056V22.3553V22.3487Z" fill="#4E4E4E"/>
<path d="M53.1839 26.3918C53.1839 24.7867 52.8272 23.5648 52.1139 22.7325C51.4005 21.9003 50.4163 21.4842 49.1746 21.4842C47.9328 21.4842 46.8826 21.9201 46.156 22.792C45.4295 23.6639 45.0662 24.8924 45.0662 26.4776C45.0662 28.0629 45.4295 29.2188 46.156 30.0708C46.8826 30.9295 47.8998 31.3522 49.2076 31.3522C50.5154 31.3522 51.5128 30.9295 52.1865 30.0906C52.8602 29.2518 53.1905 28.0166 53.1905 26.3918M56.5921 26.2795C56.5921 28.6309 55.9118 30.5134 54.5511 31.9203C53.1905 33.3272 51.3411 34.0339 49.0095 34.0339C46.6778 34.0339 44.9869 33.3668 43.6593 32.0259C42.3317 30.6851 41.6646 28.8753 41.6646 26.5899C41.6646 24.1791 42.3449 22.2768 43.7055 20.8897C45.0662 19.5026 46.9553 18.8025 49.3661 18.8025C51.6383 18.8025 53.4085 19.4696 54.6833 20.7972C55.958 22.1249 56.5987 23.9545 56.5987 26.2795" fill="#4E4E4E"/>
<path d="M63.2709 33.1288C63.2709 35.4604 62.7557 37.2768 61.7319 38.5648C60.7081 39.8528 59.2748 40.5001 57.4254 40.5001C57.1347 40.5001 56.7979 40.4605 56.4214 40.3812C56.0449 40.3019 55.7212 40.2095 55.457 40.1038V37.2504C56.1308 37.6401 56.7384 37.8316 57.2866 37.8316C58.1585 37.8316 58.8256 37.4551 59.2946 36.7087C59.7636 35.9624 59.9948 34.9056 59.9948 33.5317V19.1589H63.2709V33.1288Z" fill="#4E4E4E"/>
<path d="M63.68 14.0264C63.68 14.568 63.4818 15.0171 63.0921 15.3738C62.7024 15.7305 62.2269 15.9154 61.6654 15.9154C61.104 15.9154 60.635 15.7371 60.2453 15.3738C59.8556 15.0171 59.6641 14.568 59.6641 14.0264C59.6641 13.4847 59.8622 13.0224 60.2519 12.6525C60.6416 12.2826 61.1172 12.0977 61.6654 12.0977C62.2401 12.0977 62.7222 12.2892 63.1053 12.6657C63.4884 13.0422 63.68 13.4979 63.68 14.0264Z" fill="#3A3A3A"/>
<path d="M76.6266 24.9189C76.6266 23.763 76.3558 22.8845 75.8208 22.2835C75.2792 21.6758 74.5262 21.3786 73.5552 21.3786C72.6635 21.3786 71.8973 21.7088 71.2434 22.3627C70.5895 23.0166 70.18 23.8753 70.0083 24.9189H76.6332H76.6266ZM70.0017 27.3892C70.0677 28.7103 70.4706 29.7208 71.2038 30.4078C71.9436 31.0947 72.9938 31.4448 74.3676 31.4448C75.1933 31.4448 75.9793 31.3127 76.7323 31.0551C77.4853 30.7975 78.1524 30.4606 78.7204 30.0577V32.8252C78.1722 33.1819 77.4324 33.4792 76.5077 33.7037C75.583 33.9283 74.6054 34.0472 73.575 34.0472C71.3755 34.0472 69.6648 33.3867 68.4561 32.0723C67.2473 30.7512 66.6396 28.9216 66.6396 26.5768C66.6396 25.0246 66.9369 23.6705 67.5379 22.508C68.139 21.3455 68.9713 20.4406 70.0347 19.7933C71.0981 19.146 72.2672 18.8224 73.542 18.8224C75.5434 18.8224 77.1022 19.4367 78.2118 20.6652C79.3215 21.8938 79.8763 23.5979 79.8763 25.771V27.4024H69.9951L70.0017 27.3892Z" fill="#4E4E4E"/>
<path d="M93.2707 33.0692C92.1544 33.7099 90.7805 34.0335 89.1425 34.0335C87.7422 34.0335 86.5004 33.7297 85.404 33.1286C84.3141 32.521 83.4621 31.6623 82.8544 30.546C82.2467 29.4298 81.9429 28.1814 81.9429 26.8009C81.9429 25.2223 82.2599 23.8286 82.8874 22.6199C83.5149 21.4111 84.4264 20.4732 85.6219 19.8061C86.8175 19.139 88.2045 18.8087 89.7832 18.8087C90.3974 18.8087 91.0381 18.8748 91.6986 19.0135C92.3592 19.1522 92.8876 19.3305 93.2707 19.5485V22.6529C92.2006 21.8801 91.0844 21.4904 89.9219 21.4904C88.5612 21.4904 87.4581 21.9462 86.6127 22.8577C85.7672 23.7692 85.3445 24.9845 85.3445 26.5103C85.3445 28.0361 85.7474 29.2118 86.5665 30.0705C87.3789 30.9291 88.4819 31.3585 89.869 31.3585C90.371 31.3585 90.9324 31.2528 91.5533 31.0348C92.1742 30.8168 92.7489 30.5196 93.2707 30.1431V33.0758V33.0692Z" fill="#4E4E4E"/>
<path d="M104.333 33.5383C104.135 33.6506 103.785 33.7629 103.276 33.8685C102.768 33.9742 102.279 34.0337 101.81 34.0337C98.9633 34.0337 97.5432 32.5013 97.5432 29.4365V21.7944H95.1323V19.1589H97.5432V15.8101L100.833 14.8062V19.1589H104.333V21.7944H100.833V28.8288C100.833 29.7469 100.998 30.3942 101.328 30.7773C101.658 31.1604 102.18 31.352 102.887 31.352C103.078 31.352 103.316 31.3124 103.6 31.2331C103.891 31.1538 104.129 31.0482 104.333 30.916V33.5383Z" fill="#4E4E4E"/>
<path d="M116.626 33.6774V31.4911H116.567C116.124 32.2771 115.516 32.898 114.757 33.3471C113.997 33.8029 113.139 34.0275 112.181 34.0275C110.49 34.0275 109.195 33.5189 108.31 32.5083C107.419 31.4977 106.976 29.9785 106.976 27.9573V19.1527H110.292V27.5478C110.292 30.0842 111.296 31.3458 113.31 31.3458C114.301 31.3458 115.1 30.9957 115.708 30.2956C116.316 29.5954 116.613 28.6773 116.613 27.5478V19.1527H119.916V33.6708H116.613L116.626 33.6774Z" fill="#4E4E4E"/>
<path d="M142.729 33.6772V25.4803C142.729 24.08 142.511 23.0628 142.075 22.4287C141.639 21.7946 140.9 21.4776 139.849 21.4776C138.991 21.4776 138.264 21.8673 137.683 22.6533C137.095 23.4393 136.804 24.3904 136.804 25.5199V33.6706H133.528V25.1896C133.528 22.7127 132.577 21.4776 130.675 21.4776C129.77 21.4776 129.03 21.8541 128.469 22.607C127.907 23.36 127.623 24.331 127.623 25.5199V33.6706H124.347V19.1592H127.623V21.3983H127.683C128.713 19.6678 130.246 18.8025 132.28 18.8025C133.251 18.8025 134.11 19.0535 134.836 19.5555C135.569 20.0575 136.091 20.7576 136.402 21.6559C136.989 20.6651 137.683 19.9386 138.482 19.4894C139.281 19.0337 140.213 18.8091 141.283 18.8091C142.822 18.8091 143.997 19.2781 144.803 20.216C145.609 21.1539 146.019 22.6533 146.019 24.7141V33.6904H142.729V33.6772Z" fill="#4E4E4E"/>
</g>
<defs>
<clipPath id="clip0_2720_2016">
<rect width="131.019" height="32.5981" fill="white" transform="translate(15 10)"/>
</clipPath>
</defs>
</svg>
