<svg width="162" height="53" viewBox="0 0 162 53" fill="none" xmlns="http://www.w3.org/2000/svg">
<path d="M38.1973 20.3114C37.6205 19.4886 36.8792 18.8303 35.9729 18.4189C35.0667 17.9252 33.8311 17.6784 32.4305 17.6784C31.2773 17.6784 30.1239 18.0075 29.0529 18.5835C28.1467 19.0772 27.4052 19.7354 26.8286 20.5583C26.252 19.7354 25.5929 19.0772 24.8515 18.6658C23.8629 18.0898 22.7096 17.7606 21.3091 17.7606C20.4853 17.7606 19.6615 17.9252 19.0024 18.1721C18.3434 18.4189 17.6843 18.748 17.19 19.0772C16.7781 19.4063 16.3662 19.6532 16.1191 19.9823V18.1721H12V36.7682H16.2838V27.1409C16.2838 26.2358 16.3662 25.413 16.6134 24.6725C16.8605 24.0142 17.1076 23.4382 17.5195 23.0268C17.9314 22.6154 18.3434 22.2862 18.8376 22.1217C19.3319 21.8748 19.8262 21.7925 20.4029 21.7925C21.1443 21.7925 21.721 21.8748 22.1329 22.1217C22.5448 22.3685 22.8743 22.6977 23.0391 23.1091C23.2862 23.6028 23.451 24.0965 23.5334 24.7547C23.6158 25.413 23.6981 26.1536 23.6981 26.9764V36.6859H27.982V26.565C27.982 25.0839 28.3115 23.9318 28.9706 23.0268C29.5472 22.1217 30.6182 21.7103 32.0186 21.7103C32.76 21.7103 33.3368 21.7925 33.7486 22.0394C34.1606 22.2862 34.4901 22.6154 34.7372 23.0268C34.9844 23.4382 35.1492 23.9319 35.2315 24.5079C35.3138 25.0839 35.3963 25.7422 35.3963 26.4005V36.6859H39.6802V25.9067C39.6802 24.9193 39.5977 23.8496 39.3505 22.9445C39.1034 21.9571 38.7739 21.052 38.1973 20.3114ZM61.8406 23.6028C61.3463 22.4508 60.605 21.3811 59.7811 20.476C58.875 19.5709 57.804 18.9126 56.6506 18.4189C54.2616 17.4315 51.2958 17.4315 48.9068 18.4189C47.6711 18.9126 46.6825 19.6532 45.7763 20.476C44.8701 21.3811 44.211 22.3685 43.7167 23.6028C43.2224 24.7547 42.9753 26.0712 42.9753 27.3878C42.9753 28.7044 43.2224 30.0208 43.7167 31.1728C44.211 32.3249 44.9525 33.3946 45.7763 34.2996C46.6825 35.2048 47.6711 35.863 48.9068 36.3567C50.1424 36.8504 51.3782 37.0973 52.7787 37.0973C54.1791 37.0973 55.4974 36.8504 56.6506 36.3567C57.8864 35.863 58.875 35.1224 59.7811 34.2996C60.6873 33.3946 61.3463 32.4071 61.8406 31.1728C62.3349 30.0208 62.582 28.7044 62.582 27.3878C62.582 26.0712 62.3349 24.7547 61.8406 23.6028ZM57.7216 29.6917C57.4744 30.35 57.1449 31.0083 56.6506 31.5021C56.2387 31.9957 55.662 32.4071 55.0031 32.654C53.6849 33.2299 51.8725 33.2299 50.5544 32.654C49.8954 32.4071 49.3187 31.9957 48.9068 31.5021C48.4949 31.0083 48.0829 30.4324 47.8358 29.6917C47.5888 28.9513 47.424 28.2106 47.424 27.3878C47.424 26.565 47.5888 25.7422 47.8358 25.0839C48.0829 24.4256 48.4125 23.7673 48.9068 23.2736C49.3187 22.7799 49.8954 22.3685 50.5544 22.1217C51.2135 21.8748 51.955 21.7103 52.7787 21.7103C53.6025 21.7103 54.344 21.8748 55.0031 22.1217C55.662 22.3685 56.2387 22.7799 56.6506 23.2736C57.0626 23.7673 57.4744 24.3433 57.7216 25.0839C57.9687 25.8244 58.1335 26.565 58.1335 27.3878C58.051 28.2106 57.9687 29.0335 57.7216 29.6917ZM80.4588 19.4063C79.7998 18.8303 79.0583 18.3366 78.2346 18.0898C77.4106 17.8429 76.5045 17.6784 75.6807 17.6784C74.1979 17.6784 72.9621 18.0075 71.8087 18.5835C71.2321 18.9126 70.6555 19.324 70.2435 19.8177V18.0898H65.9596V36.6859H70.2435V27.1409C70.2435 26.1536 70.326 25.3308 70.5731 24.6725C70.8203 24.0142 71.1497 23.4382 71.4792 23.0268C71.8912 22.6154 72.303 22.2862 72.8798 22.1217C73.7859 21.7925 75.0216 21.7103 76.0102 22.0394C76.4221 22.204 76.834 22.3685 77.0812 22.6977C77.4106 23.0268 77.6578 23.4382 77.8226 23.9318C77.9874 24.4256 78.1521 25.0839 78.1521 25.8244V36.7682H82.4359V24.9193C82.4359 23.6851 82.2711 22.6154 81.8593 21.7103C81.5297 20.7228 81.0355 19.9823 80.4588 19.4063ZM121.897 10.9311C121.402 11.4248 121.155 12.0831 121.155 12.7413C121.155 13.4819 121.402 14.0579 121.897 14.5516C122.391 15.0453 123.05 15.2921 123.709 15.2921C124.45 15.2921 125.027 15.0453 125.521 14.5516C126.016 14.0579 126.263 13.3996 126.263 12.7413C126.263 12.0008 126.016 11.4248 125.521 10.9311C124.45 9.94371 122.885 9.94371 121.897 10.9311ZM121.402 36.6859H125.686V18.0898H121.402V36.6859ZM95.4522 32.9832C94.4636 33.1477 93.5575 33.1477 93.1455 32.8185C92.8984 32.654 92.7335 32.4071 92.5689 32.078C92.4041 31.7488 92.3217 31.3374 92.3217 30.926C92.3217 30.4324 92.3217 29.9386 92.3217 29.4449V21.8748H97.0999V18.0075H92.3217V10.1083H88.0379V18.0075H84.166V21.8748H88.0379V30.5969C88.0379 31.3374 88.0379 32.078 88.1202 32.8185C88.2027 33.5591 88.4498 34.2996 88.7793 34.9579C89.1913 35.6162 89.7679 36.1099 90.5094 36.5213C91.3331 36.9327 92.3217 37.0973 93.7221 37.0973C94.0518 37.0973 94.6284 37.0149 95.2874 36.9327C95.9465 36.8504 96.5231 36.6859 97.0174 36.439L97.2646 36.2745V32.078L96.5231 32.4894C96.1113 32.7363 95.7817 32.9008 95.4522 32.9832ZM114.977 19.4063C114.317 18.8303 113.576 18.3366 112.752 18.0898C111.928 17.8429 111.022 17.6784 110.198 17.6784C108.716 17.6784 107.48 18.0075 106.327 18.5835C105.75 18.9126 105.173 19.324 104.761 19.8177V10.1906H100.477V36.7682H104.761V27.2233C104.761 26.2358 104.844 25.413 105.091 24.7547C105.338 24.0965 105.667 23.5205 105.997 23.1091C106.409 22.6977 106.821 22.3685 107.397 22.204C108.304 21.8748 109.539 21.7925 110.528 22.1217C110.94 22.2862 111.352 22.4508 111.599 22.7799C111.928 23.1091 112.176 23.5205 112.34 24.0142C112.505 24.5079 112.67 25.1662 112.67 25.9067V36.8504H116.954V25.0015C116.954 23.7673 116.789 22.6977 116.377 21.7925C116.13 20.7228 115.553 19.9823 114.977 19.4063ZM149 27.3878C149 28.7044 148.753 30.0208 148.259 31.1728C147.764 32.3249 147.023 33.3946 146.199 34.2996C145.293 35.2048 144.222 35.863 143.069 36.3567C141.833 36.8504 140.597 37.0973 139.197 37.0973C137.796 37.0973 136.478 36.8504 135.325 36.3567C134.089 35.863 133.1 35.1224 132.194 34.2996C131.288 33.3946 130.629 32.4071 130.135 31.1728C129.64 30.0208 129.393 28.7044 129.393 27.3878C129.393 26.0712 129.64 24.7547 130.135 23.6028C130.629 22.4508 131.37 21.3811 132.194 20.476C133.1 19.5709 134.171 18.9126 135.325 18.4189C137.714 17.4315 140.597 17.4315 142.986 18.4189H143.069C143.81 18.748 144.304 19.4886 144.304 20.3114C144.304 21.4634 143.398 22.3685 142.245 22.3685C141.998 22.3685 141.668 22.2862 141.421 22.204C140.762 21.9571 140.02 21.7925 139.197 21.7925C138.373 21.7925 137.631 21.9571 136.972 22.204C136.313 22.4508 135.737 22.8622 135.325 23.3559C134.913 23.8496 134.501 24.4256 134.254 25.1662C134.007 25.9067 133.842 26.6473 133.842 27.4701C133.842 28.293 134.007 29.1158 134.254 29.7741C134.501 30.4324 134.83 31.0905 135.325 31.5843C135.737 32.078 136.313 32.4894 136.972 32.7363C138.29 33.3122 140.103 33.3122 141.421 32.7363C142.08 32.4894 142.657 32.078 143.069 31.5843C143.48 31.0905 143.892 30.5146 144.14 29.7741C144.387 29.0335 144.551 28.293 144.551 27.4701C144.551 26.6473 144.222 25.0839 144.222 25.0839C144.222 24.9193 144.14 24.7548 144.14 24.5901C144.14 23.8496 144.469 23.1914 145.046 22.7799L145.128 22.6977C145.458 22.4508 145.87 22.3685 146.364 22.3685C147.27 22.3685 148.011 22.8622 148.341 23.6028C148.341 23.6028 148.423 23.8496 148.506 24.0142C148.835 25.1662 149 26.1536 149 27.3878Z" fill="#4E4E4E"/>
</svg>
