<svg width="162" height="53" viewBox="0 0 162 53" fill="none" xmlns="http://www.w3.org/2000/svg">
<g clip-path="url(#clip0_2720_1994)">
<path d="M10.3398 44.1051C10.3398 44.4911 10.6541 44.8063 11.042 44.8063H46.2299C46.314 44.8063 46.3963 44.7875 46.4748 44.7562C46.5001 44.7456 46.5208 44.7341 46.5438 44.7222C46.5948 44.6969 46.6421 44.6638 46.6862 44.6248C46.706 44.6092 46.7262 44.5899 46.7446 44.5719C46.7855 44.526 46.8176 44.4745 46.8457 44.4175C46.8558 44.3992 46.8705 44.384 46.8765 44.3642C46.8797 44.3578 46.8852 44.3523 46.8852 44.3454C46.9141 44.2719 46.9252 44.1947 46.927 44.117C46.927 44.1115 46.9288 44.1074 46.9288 44.1046V14.4933C46.9288 14.1064 46.615 13.7935 46.2299 13.7935H11.042C10.9551 13.7935 10.8701 13.8128 10.7943 13.8417C10.769 13.8514 10.7479 13.8647 10.7235 13.8771C10.6725 13.9024 10.627 13.9331 10.5852 13.9713C10.5613 13.9897 10.542 14.0076 10.5236 14.0269C10.4841 14.0733 10.4529 14.1215 10.423 14.1767C10.4129 14.1942 10.4 14.2134 10.3918 14.2355C10.3895 14.241 10.3835 14.2452 10.3835 14.2525C10.355 14.3283 10.344 14.4032 10.3426 14.4827C10.3426 14.4846 10.3398 14.4901 10.3398 14.4933V44.1046V44.1051ZM37.3163 15.1963L18.0238 31.3426L11.7418 26.0141V16.0092L17.5652 20.9517C17.8289 21.175 18.2108 21.175 18.475 20.9517L25.2583 15.1963H37.3163ZM11.7418 27.8536L16.9311 32.2566L11.7418 36.5976V27.8536ZM11.7418 38.4301L18.469 32.797H18.4695L29.0451 23.9459L39.244 15.4105L45.525 20.7403V30.7434L39.6998 25.8028C39.5716 25.6929 39.4089 25.6355 39.2472 25.6355C39.0855 25.6355 38.9278 25.6902 38.7978 25.8L17.7642 43.4025H11.7418V38.4292V38.4301ZM19.9514 43.4034L39.244 27.2557L45.525 32.5851V42.5901L39.6998 37.6467C39.5716 37.5373 39.4089 37.4803 39.2472 37.4803C39.0855 37.4803 38.9246 37.5373 38.7937 37.6467L32.0108 43.4034H19.9514ZM34.1797 43.4034L39.2477 39.1033L44.3174 43.4034H34.1797ZM45.5255 18.9018L41.1601 15.1968H45.5255V18.9018ZM23.0876 15.1968L18.021 19.496L12.9512 15.1968H23.0876Z" fill="#4E4E4E"/>
<g opacity="0.8">
<path d="M10.7334 4.20129L13.1596 4.21048V5.22692H12.656V6.36237H14.8442V5.22692H14.3406V4.20129H16.7668V5.22646H16.0251V8.56802H16.7668V9.59319H14.3589V8.56802H14.8442V7.38708H12.656V8.56802H13.1412V9.59319H10.7334V8.56802H11.475V5.22692H10.7334V4.20129Z" fill="#4E4E4E"/>
<path d="M22.0944 4C22.6316 4 23.1063 4.11166 23.518 4.33406C23.9302 4.55693 24.2518 4.8818 24.4839 5.30915C24.7159 5.73649 24.8317 6.26447 24.8317 6.89308C24.8317 7.52169 24.7159 8.04369 24.4839 8.47701C24.2518 8.91033 23.9315 9.23842 23.5226 9.46128C23.1136 9.68415 22.6403 9.79535 22.1036 9.79535C21.5669 9.79535 21.101 9.68369 20.6892 9.46128C20.277 9.23842 19.9554 8.91079 19.7233 8.47701C19.4913 8.04369 19.3755 7.51572 19.3755 6.89308C19.3755 6.27044 19.4913 5.73649 19.7233 5.30915C19.9554 4.8818 20.2757 4.55693 20.6846 4.33406C21.0936 4.1112 21.5637 4 22.0944 4ZM22.1036 4.98887C21.6032 4.98887 21.2278 5.14924 20.9773 5.46952C20.7269 5.78979 20.6019 6.26447 20.6019 6.89308C20.6019 7.52169 20.7269 7.99774 20.9773 8.32124C21.2273 8.64473 21.6027 8.80648 22.1036 8.80648C22.6045 8.80648 22.9808 8.64473 23.2345 8.32124C23.4876 7.99774 23.6145 7.52169 23.6145 6.89308C23.6145 6.26447 23.4895 5.78979 23.2391 5.46952C22.9886 5.14924 22.6104 4.98887 22.1036 4.98887Z" fill="#4E4E4E"/>
<path d="M27.3037 4.20129H32.2384V6.15146H31.2132V5.22692H30.3618V8.56848H31.1034V9.59365H28.4208V8.56848H29.1716V5.22692H28.3293V6.15146H27.3042V4.20129H27.3037Z" fill="#4E4E4E"/>
<path d="M34.8197 4.20129H39.0036L39.5711 5.89505L38.6006 6.22452L38.2619 5.22646H36.7423V6.35272H38.2348V7.36916H36.7423V8.56848H38.5091L38.8294 7.67106L39.7907 8.00972L39.2416 9.59365H34.8105V8.56848H35.5522L35.5614 5.22692H34.8197V4.20129Z" fill="#4E4E4E"/>
<path d="M42.2905 4.20129H45.1744V5.22646H44.2683V8.56802H45.6234L45.9436 7.6706L46.9141 8.00926L46.365 9.59319H42.291V8.56802H43.1057V5.22692H42.291V4.20129H42.2905Z" fill="#4E4E4E"/>
</g>
<path d="M57.8437 44.806V42.8002H59.8094L62.8078 35.1154H61.1397V33.1096H65.6471L69.3006 42.7998H71.0877V44.8055H65.9448V42.7998H66.9971L66.3814 41.0922H62.4296L61.8138 42.7998H62.9654V44.8055H57.8423L57.8437 44.806ZM63.0063 39.5239H65.846L64.456 35.3736L63.0063 39.5239Z" fill="#4E4E4E"/>
<path d="M83.1809 33.1101C84.7166 33.1101 85.8879 33.4345 86.6957 34.0829C87.5031 34.7317 87.907 35.6783 87.907 36.9226C87.907 38.167 87.5031 39.1632 86.6957 39.8318C85.8879 40.5004 84.7166 40.8345 83.1809 40.8345H81.9696V42.8002H83.9754V44.806H77.9985V42.8002H79.6666V35.1154H77.9985V33.1096H83.1814L83.1809 33.1101ZM83.1611 39.0277C84.723 39.0277 85.5042 38.3462 85.5042 36.9824C85.5042 35.738 84.723 35.1158 83.1611 35.1158H81.9894V39.0277H83.1611Z" fill="#4E4E4E"/>
<path d="M93.2485 44.806V42.8002H95.2142L98.2125 35.1154H96.5445V33.1096H101.052L104.705 42.7998H106.492V44.8055H101.35V42.7998H102.402L101.786 41.0922H97.8344L97.2186 42.7998H98.3702V44.8055H93.2471L93.2485 44.806ZM98.4111 39.5239H101.251L99.8608 35.3736L98.4111 39.5239Z" fill="#4E4E4E"/>
<path d="M113.404 44.806V42.8002H115.072V35.1154H113.404V33.1096H118.666C119.87 33.1096 120.811 33.2654 121.486 33.5765C122.161 33.8876 122.631 34.331 122.895 34.9068C123.16 35.4825 123.292 36.1612 123.292 36.9419C123.292 38.2263 122.952 39.1894 122.27 39.8313C121.588 40.4737 120.533 40.7945 119.103 40.7945H117.375V42.7998H118.407V44.8055H113.403L113.404 44.806ZM117.395 38.8089H118.567C119.136 38.8089 119.59 38.7561 119.927 38.6499C120.265 38.5443 120.513 38.3554 120.672 38.0843C120.831 37.8132 120.91 37.4391 120.91 36.9622C120.91 36.459 120.818 36.0753 120.632 35.8106C120.447 35.5459 120.182 35.364 119.838 35.2647C119.493 35.1655 119.07 35.1158 118.567 35.1158H117.395V38.8094V38.8089ZM121.089 44.806L118.785 40.5564L120.93 40.199L122.498 42.8002H124.484V44.806H121.089Z" fill="#4E4E4E"/>
<path d="M131.155 33.11H141.739V37.0815H139.693V35.1158H137.609L137.589 42.8006H139.277V44.8064H133.578V42.8006H135.266L135.285 35.1158H133.2V37.0815H131.155V33.11Z" fill="#4E4E4E"/>
<path d="M68.9435 24.1128C68.5198 24.4042 68.0994 24.6688 67.6826 24.9073C67.2658 25.1458 66.8054 25.331 66.3027 25.4633C65.7995 25.5957 65.2035 25.6618 64.5157 25.6618C63.3508 25.6618 62.3215 25.41 61.4278 24.9073C60.534 24.4042 59.8323 23.686 59.3227 22.7527C58.8131 21.8194 58.5581 20.7106 58.5581 19.4267C58.5581 18.1429 58.7993 17.0736 59.2828 16.1403C59.7657 15.2071 60.4573 14.4824 61.3579 13.9659C62.2581 13.4494 63.3301 13.1917 64.5749 13.1917C65.3694 13.1917 66.0973 13.2941 66.759 13.4995C67.4207 13.7049 67.9965 13.993 68.4868 14.3634L69.0823 17.0244L67.196 17.4812L66.7392 15.5751C66.4217 15.3899 66.0941 15.2608 65.7563 15.1878C65.4186 15.1152 65.0446 15.0784 64.6342 15.0784C63.9987 15.0784 63.3995 15.2539 62.8371 15.6045C62.2742 15.9556 61.8211 16.4551 61.4769 17.1039C61.1327 17.7528 60.9604 18.527 60.9604 19.4272C60.9604 20.3274 61.1125 21.0952 61.4172 21.7307C61.7214 22.3662 62.1386 22.8529 62.668 23.1901C63.1973 23.5279 63.7997 23.6965 64.4748 23.6965C64.9513 23.6965 65.3616 23.6469 65.7058 23.5476C66.05 23.4484 66.4006 23.3128 66.7581 23.1405V21.0755H64.2165V19.2485H68.9426V24.1133L68.9435 24.1128Z" fill="#4E4E4E"/>
<path d="M87.5091 21.0351C87.5091 22.5179 87.1282 23.6598 86.3673 24.4603C85.6059 25.2612 84.464 25.6614 82.9421 25.6614C81.4202 25.6614 80.2581 25.2612 79.4967 24.4603C78.7353 23.6593 78.3548 22.5179 78.3548 21.0351V15.5742H76.667V13.5685H81.8098V15.5742H80.6583V21.4321C80.6583 22.2661 80.8568 22.8616 81.2538 23.2191C81.6508 23.5766 82.2133 23.7554 82.9416 23.7554C83.6699 23.7554 84.2287 23.5569 84.6197 23.1598C85.0099 22.7628 85.2056 22.1209 85.2056 21.2336V15.5742H84.0738V13.5685H89.2167V15.5742H87.5091V21.0351Z" fill="#4E4E4E"/>
<path d="M96.5638 13.5683H105.579L106.751 17.0831L104.864 17.7186L104.11 15.5741H100.556V18.3142H103.931V20.2997H100.556V23.2585H104.607L105.341 21.2729L107.208 21.9282L106.056 25.2643H96.5449V23.2585H98.2327L98.2525 15.5736H96.5647V13.5679L96.5638 13.5683Z" fill="#4E4E4E"/>
<path d="M119.38 25.6613C118.4 25.6613 117.556 25.585 116.848 25.4329C116.139 25.2804 115.527 25.1053 115.011 24.9068L114.654 22.1865L116.52 21.9682L116.739 23.418C117.122 23.5503 117.52 23.6496 117.93 23.7157C118.34 23.7819 118.771 23.815 119.221 23.815C119.724 23.815 120.187 23.7525 120.611 23.6261C121.035 23.5007 121.372 23.3086 121.624 23.0504C121.875 22.7921 122.001 22.4645 122.001 22.0675C122.001 21.6705 121.872 21.3001 121.614 20.995C121.355 20.6908 120.816 20.4721 119.995 20.3397L118.566 20.1012C117.374 19.8899 116.461 19.4924 115.826 18.9097C115.19 18.3275 114.873 17.5661 114.873 16.626C114.873 15.8714 115.077 15.2359 115.488 14.7199C115.899 14.2034 116.455 13.8165 117.156 13.5583C117.858 13.3 118.646 13.1709 119.519 13.1709C119.956 13.1709 120.386 13.1975 120.81 13.2504C121.234 13.3032 121.644 13.3827 122.041 13.4889C122.438 13.595 122.835 13.7338 123.232 13.9061L123.61 16.8249L121.604 17.0432L121.346 15.2562C121.081 15.1638 120.786 15.0907 120.462 15.0379C120.138 14.985 119.797 14.9584 119.44 14.9584C118.658 14.9584 118.046 15.0944 117.603 15.3655C117.159 15.6371 116.938 16.0042 116.938 16.4674C116.938 16.9306 117.099 17.2913 117.424 17.5496C117.749 17.8078 118.281 18.0031 119.023 18.1355L120.512 18.3739C121.796 18.5724 122.709 18.9598 123.252 19.5356C123.795 20.1113 124.066 20.8562 124.066 21.7697C124.066 22.5376 123.924 23.1731 123.64 23.6758C123.355 24.1789 122.981 24.576 122.518 24.8673C122.054 25.1586 121.545 25.3636 120.989 25.483C120.433 25.602 119.897 25.6618 119.381 25.6618L119.38 25.6613Z" fill="#4E4E4E"/>
<path d="M130.758 13.5685H141.342V17.54H139.296V15.5742H137.212L137.192 23.2591H138.88V25.2649H133.181V23.2591H134.869L134.888 15.5742H132.803V17.54H130.758V13.5685Z" fill="#4E4E4E"/>
</g>
<defs>
<clipPath id="clip0_2720_1994">
<rect width="131.399" height="40.8059" fill="white" transform="translate(10.3398 4)"/>
</clipPath>
</defs>
</svg>
