<svg width="246" height="58" viewBox="0 0 246 58" fill="none" xmlns="http://www.w3.org/2000/svg">
<g clip-path="url(#clip0_2723_2040)">
<path d="M46.9574 18.4828C45.9235 17.0079 44.5948 15.828 42.9704 15.0905C41.346 14.2056 39.1312 13.7631 36.6208 13.7631C34.5536 13.7631 32.4862 14.3531 30.5666 15.3855C28.9422 16.2704 27.6132 17.4503 26.5796 18.9252C25.546 17.4503 24.3646 16.2704 23.0357 15.533C21.2637 14.5005 19.1964 13.9106 16.6861 13.9106C15.2095 13.9106 13.7328 14.2056 12.5515 14.648C11.3702 15.0905 10.1889 15.6805 9.30285 16.2704C8.56453 16.8604 7.82621 17.3028 7.38321 17.8928V14.648H0V47.9808H7.67856V30.7243C7.67856 29.1019 7.82621 27.627 8.26922 26.2997C8.71219 25.1198 9.15519 24.0873 9.89351 23.3499C10.6318 22.6125 11.3702 22.0225 12.2562 21.7275C13.1421 21.2851 14.0281 21.1376 15.0618 21.1376C16.3907 21.1376 17.4244 21.2851 18.1627 21.7275C18.901 22.17 19.4917 22.76 19.787 23.4974C20.23 24.3823 20.5254 25.2674 20.673 26.4471C20.8207 27.627 20.9683 28.9545 20.9683 30.4294V47.8332H28.647V29.692C28.647 27.0372 29.2376 24.9722 30.419 23.3499C31.4526 21.7275 33.3722 20.9901 35.8824 20.9901C37.2114 20.9901 38.2452 21.1376 38.9834 21.58C39.7218 22.0225 40.3124 22.6125 40.7554 23.3499C41.1984 24.0873 41.4938 24.9722 41.6414 26.0048C41.789 27.0372 41.9368 28.2171 41.9368 29.397V47.8332H49.6154V28.512C49.6154 26.7422 49.4676 24.8249 49.0246 23.2024C48.5816 21.4326 47.991 19.8102 46.9574 18.4828ZM89.3369 24.3823C88.4509 22.3175 87.1222 20.4001 85.6453 18.7777C84.0212 17.1554 82.1016 15.9754 80.0341 15.0905C75.752 13.3207 70.436 13.3207 66.1538 15.0905C63.9388 15.9754 62.1668 17.3028 60.5423 18.7777C58.9182 20.4001 57.7368 22.17 56.8507 24.3823C55.9647 26.4471 55.5217 28.807 55.5217 31.1668C55.5217 33.5267 55.9647 35.8864 56.8507 37.9513C57.7368 40.0163 59.0658 41.9337 60.5423 43.5559C62.1668 45.1783 63.9388 46.3583 66.1538 47.2431C68.3685 48.1281 70.5835 48.5706 73.094 48.5706C75.6041 48.5706 77.967 48.1281 80.0341 47.2431C82.2492 46.3583 84.0212 45.0308 85.6453 43.5559C87.2698 41.9337 88.4509 40.1636 89.3369 37.9513C90.2229 35.8864 90.6659 33.5267 90.6659 31.1668C90.6659 28.807 90.2229 26.4471 89.3369 24.3823ZM81.9537 35.2965C81.5107 36.4765 80.9201 37.6564 80.0341 38.5414C79.2957 39.4262 78.2621 40.1636 77.081 40.6062C74.7181 41.6385 71.4695 41.6385 69.107 40.6062C67.9258 40.1636 66.8919 39.4262 66.1538 38.5414C65.4154 37.6564 64.6769 36.6241 64.2339 35.2965C63.7912 33.9692 63.4958 32.6417 63.4958 31.1668C63.4958 29.692 63.7912 28.2171 64.2339 27.0372C64.6769 25.8572 65.2678 24.6773 66.1538 23.7924C66.8919 22.9075 67.9258 22.17 69.107 21.7275C70.2884 21.2851 71.6174 20.9901 73.094 20.9901C74.5705 20.9901 75.8995 21.2851 77.081 21.7275C78.2621 22.17 79.2957 22.9075 80.0341 23.7924C80.7726 24.6773 81.5107 25.7096 81.9537 27.0372C82.3967 28.3644 82.6922 29.692 82.6922 31.1668C82.5443 32.6417 82.3967 34.1166 81.9537 35.2965ZM122.709 16.8604C121.528 15.828 120.199 14.943 118.722 14.5005C117.246 14.0581 115.621 13.7631 114.145 13.7631C111.487 13.7631 109.272 14.3531 107.204 15.3855C106.171 15.9754 105.137 16.7129 104.399 17.5978V14.5005H96.7201V47.8332H104.399V30.7243C104.399 28.9545 104.547 27.4797 104.99 26.2997C105.433 25.1198 106.023 24.0873 106.614 23.3499C107.352 22.6125 108.09 22.0225 109.124 21.7275C110.748 21.1376 112.963 20.9901 114.735 21.58C115.474 21.875 116.212 22.17 116.655 22.76C117.246 23.3499 117.689 24.0873 117.984 24.9722C118.279 25.8572 118.575 27.0372 118.575 28.3644V47.9808H126.253V26.7422C126.253 24.5298 125.958 22.6125 125.22 20.9901C124.629 19.2202 123.743 17.8928 122.709 16.8604ZM196.984 1.66899C196.098 2.55392 195.655 3.73383 195.655 4.91375C195.655 6.24116 196.098 7.27356 196.984 8.15851C197.87 9.04343 199.052 9.48592 200.233 9.48592C201.562 9.48592 202.596 9.04343 203.482 8.15851C204.368 7.27356 204.811 6.09367 204.811 4.91375C204.811 3.58634 204.368 2.55392 203.482 1.66899C201.562 -0.100887 198.756 -0.100887 196.984 1.66899ZM196.098 47.8332H203.777V14.5005H196.098V47.8332ZM149.584 41.1963C147.812 41.4912 146.188 41.4912 145.449 40.9011C145.006 40.6062 144.711 40.1636 144.416 39.5738C144.12 38.9837 143.973 38.2463 143.973 37.5088C143.973 36.6241 143.973 35.739 143.973 34.854V21.2851H152.538V14.3531H143.973V0.194092H136.294V14.3531H129.354V21.2851H136.294V36.919C136.294 38.2463 136.294 39.5738 136.442 40.9011C136.59 42.2286 137.033 43.5559 137.623 44.7358C138.362 45.9158 139.395 46.8008 140.724 47.5382C142.201 48.2757 143.973 48.5706 146.483 48.5706C147.074 48.5706 148.108 48.423 149.289 48.2757C150.47 48.1281 151.504 47.8332 152.39 47.3907L152.833 47.0957V39.5738L151.504 40.3112C150.766 40.7537 150.175 41.0487 149.584 41.1963ZM184.581 16.8604C183.399 15.828 182.07 14.943 180.594 14.5005C179.117 14.0581 177.493 13.7631 176.016 13.7631C173.358 13.7631 171.143 14.3531 169.076 15.3855C168.042 15.9754 167.008 16.7129 166.27 17.5978V0.341579H158.592V47.9808H166.27V30.8719C166.27 29.1019 166.418 27.627 166.861 26.4471C167.304 25.2674 167.894 24.2348 168.485 23.4974C169.223 22.76 169.962 22.17 170.995 21.875C172.62 21.2851 174.835 21.1376 176.607 21.7275C177.345 22.0225 178.083 22.3175 178.526 22.9075C179.117 23.4974 179.56 24.2348 179.855 25.1198C180.151 26.0048 180.446 27.1847 180.446 28.512V48.1281H188.124V26.8896C188.124 24.6773 187.829 22.76 187.091 21.1376C186.648 19.2202 185.614 17.8928 184.581 16.8604ZM245.566 31.1668C245.566 33.5267 245.123 35.8864 244.237 37.9513C243.351 40.0163 242.022 41.9337 240.545 43.5559C238.921 45.1783 237.001 46.3583 234.934 47.2431C232.719 48.1281 230.504 48.5706 227.994 48.5706C225.484 48.5706 223.121 48.1281 221.054 47.2431C218.839 46.3583 217.067 45.0308 215.442 43.5559C213.818 41.9337 212.637 40.1636 211.751 37.9513C210.865 35.8864 210.422 33.5267 210.422 31.1668C210.422 28.807 210.865 26.4471 211.751 24.3823C212.637 22.3175 213.966 20.4001 215.442 18.7777C217.067 17.1554 218.986 15.9754 221.054 15.0905C225.336 13.3207 230.504 13.3207 234.786 15.0905H234.934C236.263 15.6805 237.149 17.0079 237.149 18.4828C237.149 20.5476 235.525 22.17 233.457 22.17C233.014 22.17 232.424 22.0225 231.981 21.875C230.8 21.4326 229.471 21.1376 227.994 21.1376C226.517 21.1376 225.188 21.4326 224.007 21.875C222.826 22.3175 221.792 23.0549 221.054 23.9399C220.315 24.8249 219.577 25.8572 219.134 27.1847C218.691 28.512 218.396 29.8396 218.396 31.3144C218.396 32.7893 218.691 34.2642 219.134 35.4441C219.577 36.6241 220.168 37.8038 221.054 38.6888C221.792 39.5738 222.826 40.3112 224.007 40.7537C226.37 41.7861 229.618 41.7861 231.981 40.7537C233.162 40.3112 234.196 39.5738 234.934 38.6888C235.672 37.8038 236.411 36.7714 236.854 35.4441C237.297 34.1166 237.592 32.7893 237.592 31.3144C237.592 29.8396 237.001 27.0372 237.001 27.0372C237.001 26.7422 236.854 26.4473 236.854 26.1521C236.854 24.8249 237.444 23.6449 238.478 22.9075L238.626 22.76C239.216 22.3175 239.955 22.17 240.841 22.17C242.465 22.17 243.794 23.0549 244.385 24.3823C244.385 24.3823 244.532 24.8249 244.68 25.1198C245.271 27.1847 245.566 28.9545 245.566 31.1668Z" fill="white"/>
</g>
<defs>
<clipPath id="clip0_2723_2040">
<rect width="245.566" height="57.4729" fill="white"/>
</clipPath>
</defs>
</svg>
